<?xml version="1.0" encoding="utf-8"?>
<!-- Generator: Adobe Illustrator 28.7.4, SVG Export Plug-In . SVG Version: 9.03 Build 55973)  -->
<svg xmlns:xlink="http://www.w3.org/1999/xlink" width="305.287942793031" height="253.398908374844" version="1.1" xmlns="http://www.w3.org/2000/svg"  x="0px" y="0px"
	 viewBox="0 0 305.29 253.4" enable-background="new 0 0 305.29 253.4" xml:space="preserve">
<g id="Layer_1">
</g>
<g id="text">
	<rect fill="#FFFFFF" width="305.29" height="253.4"/>
	<g>
		
			<path fill="none" stroke="#000000" stroke-width="0.5" stroke-linecap="round" stroke-linejoin="round" stroke-miterlimit="10" d="
			M133.67,171.3c0,7.16-28.12,12.96-62.8,12.96s-62.8-5.8-62.8-12.96V27.26c0,7.16,28.12,12.96,62.8,12.96s62.8-5.8,62.8-12.96
			V171.3z"/>
		<ellipse fill="none" stroke="#000000" stroke-width="0.5" stroke-miterlimit="10" cx="70.87" cy="27.26" rx="62.8" ry="12.96"/>
		<ellipse fill="none" stroke="#000000" stroke-width="0.25" stroke-miterlimit="10" cx="70.87" cy="171.3" rx="62.8" ry="12.96"/>
		<g>
			
				<linearGradient id="SVGID_1_" gradientUnits="userSpaceOnUse" x1="33.782" y1="113.7878" x2="33.782" y2="92.4499" gradientTransform="matrix(0.9467 -0.3221 0.3221 0.9467 -34.3769 31.3465)">
				<stop  offset="0" style="stop-color:#FFFFFF"/>
				<stop  offset="0.1733" style="stop-color:#F3F7FC"/>
				<stop  offset="0.4471" style="stop-color:#DBE8F6"/>
				<stop  offset="0.7851" style="stop-color:#B6D3EF"/>
				<stop  offset="1" style="stop-color:#9AC4E9"/>
			</linearGradient>
			<polygon opacity="0.71" fill="url(#SVGID_1_)" points="31.35,99.69 34.39,128.14 34.12,128.23 19.18,103.83 			"/>
			
				<radialGradient id="SVGID_00000076586906473071754180000011830330081661403782_" cx="32.1746" cy="82.6582" r="6.7705" gradientTransform="matrix(0.9467 -0.3221 0.3221 0.9467 -34.3769 31.3465)" gradientUnits="userSpaceOnUse">
				<stop  offset="0" style="stop-color:#00A651;stop-opacity:0.1"/>
				<stop  offset="0.6956" style="stop-color:#00A651"/>
			</radialGradient>
			<path fill="url(#SVGID_00000076586906473071754180000011830330081661403782_)" d="M32.57,98.46c-1.42-4.17-5.95-6.4-10.12-4.98
				c-4.17,1.42-6.4,5.95-4.98,10.12c1.42,4.17,5.95,6.4,10.12,4.98C31.76,107.16,33.99,102.63,32.57,98.46z"/>
		</g>
		<g>
			
				<linearGradient id="SVGID_00000005976730333892116870000000364582378474245249_" gradientUnits="userSpaceOnUse" x1="122.1924" y1="136.7948" x2="122.1924" y2="115.4569" gradientTransform="matrix(0.9467 -0.3221 0.3221 0.9467 -34.3769 31.3465)">
				<stop  offset="0" style="stop-color:#FFFFFF"/>
				<stop  offset="0.1733" style="stop-color:#F3F7FC"/>
				<stop  offset="0.4471" style="stop-color:#DBE8F6"/>
				<stop  offset="0.7851" style="stop-color:#B6D3EF"/>
				<stop  offset="1" style="stop-color:#9AC4E9"/>
			</linearGradient>
			<polygon opacity="0.71" fill="url(#SVGID_00000005976730333892116870000000364582378474245249_)" points="122.46,92.99 
				125.5,121.44 125.23,121.54 110.28,97.14 			"/>
			
				<radialGradient id="SVGID_00000096772255310661780690000013370293693394892446_" cx="120.5849" cy="105.6652" r="6.7706" gradientTransform="matrix(0.9467 -0.3221 0.3221 0.9467 -34.3769 31.3465)" gradientUnits="userSpaceOnUse">
				<stop  offset="0" style="stop-color:#00A651;stop-opacity:0.1"/>
				<stop  offset="0.6956" style="stop-color:#00A651"/>
			</radialGradient>
			<path fill="url(#SVGID_00000096772255310661780690000013370293693394892446_)" d="M123.68,91.76c-1.42-4.17-5.95-6.4-10.12-4.98
				c-4.17,1.42-6.4,5.95-4.98,10.12c1.42,4.17,5.95,6.4,10.12,4.98C122.87,100.46,125.1,95.93,123.68,91.76z"/>
		</g>
		<g>
			
				<linearGradient id="SVGID_00000098914043151736866680000008456353118735535773_" gradientUnits="userSpaceOnUse" x1="85.8023" y1="76.6374" x2="85.8023" y2="55.2995" gradientTransform="matrix(0.9467 -0.3221 0.3221 0.9467 -34.3769 31.3465)">
				<stop  offset="0" style="stop-color:#FFFFFF"/>
				<stop  offset="0.1733" style="stop-color:#F3F7FC"/>
				<stop  offset="0.4471" style="stop-color:#DBE8F6"/>
				<stop  offset="0.7851" style="stop-color:#B6D3EF"/>
				<stop  offset="1" style="stop-color:#9AC4E9"/>
			</linearGradient>
			<polygon opacity="0.71" fill="url(#SVGID_00000098914043151736866680000008456353118735535773_)" points="68.63,47.76 
				71.68,76.22 71.4,76.31 56.46,51.91 			"/>
			
				<radialGradient id="SVGID_00000011723439392187948110000001474386598928467118_" cx="84.1948" cy="45.5077" r="6.7706" gradientTransform="matrix(0.9467 -0.3221 0.3221 0.9467 -34.3769 31.3465)" gradientUnits="userSpaceOnUse">
				<stop  offset="0" style="stop-color:#00A651;stop-opacity:0.1"/>
				<stop  offset="0.6956" style="stop-color:#00A651"/>
			</radialGradient>
			<path fill="url(#SVGID_00000011723439392187948110000001474386598928467118_)" d="M69.85,46.53c-1.42-4.17-5.95-6.4-10.12-4.98
				c-4.17,1.42-6.4,5.95-4.98,10.12c1.42,4.17,5.95,6.4,10.12,4.98C69.04,55.23,71.27,50.7,69.85,46.53z"/>
		</g>
		<g>
			
				<linearGradient id="SVGID_00000079479284989921809390000002905149662187860878_" gradientUnits="userSpaceOnUse" x1="145.0034" y1="217.2569" x2="145.0034" y2="195.9198" gradientTransform="matrix(0.4105 0.9119 -0.9119 0.4105 194.8415 -121.7228)">
				<stop  offset="0" style="stop-color:#FFFFFF"/>
				<stop  offset="0.1733" style="stop-color:#F3F7FC"/>
				<stop  offset="0.4471" style="stop-color:#DBE8F6"/>
				<stop  offset="0.7851" style="stop-color:#B6D3EF"/>
				<stop  offset="1" style="stop-color:#9AC4E9"/>
			</linearGradient>
			<polygon opacity="0.71" fill="url(#SVGID_00000079479284989921809390000002905149662187860878_)" points="84.34,94.09 
				56.31,99.82 56.19,99.56 79.06,82.37 			"/>
			
				<radialGradient id="SVGID_00000151526265126190395470000012596800315892154766_" cx="80.8425" cy="85.3287" r="6.462" gradientUnits="userSpaceOnUse">
				<stop  offset="0" style="stop-color:#00A651;stop-opacity:0.1"/>
				<stop  offset="0.6956" style="stop-color:#00A651"/>
			</radialGradient>
			<path fill="url(#SVGID_00000151526265126190395470000012596800315892154766_)" d="M85.68,95.19c4.02-1.81,5.81-6.53,4-10.54
				c-1.81-4.02-6.53-5.81-10.54-4c-4.02,1.81-5.81,6.53-4,10.54C76.95,95.21,81.67,97,85.68,95.19z"/>
		</g>
		<g>
			
				<linearGradient id="SVGID_00000104685011233894868590000005694215728173155488_" gradientUnits="userSpaceOnUse" x1="279.6406" y1="247.5795" x2="279.6406" y2="226.2414" gradientTransform="matrix(-0.663 0.7486 -0.7486 -0.663 386.6227 5.4108)">
				<stop  offset="0" style="stop-color:#FFFFFF"/>
				<stop  offset="0.1733" style="stop-color:#F3F7FC"/>
				<stop  offset="0.4471" style="stop-color:#DBE8F6"/>
				<stop  offset="0.7851" style="stop-color:#B6D3EF"/>
				<stop  offset="1" style="stop-color:#9AC4E9"/>
			</linearGradient>
			<polygon opacity="0.71" fill="url(#SVGID_00000104685011233894868590000005694215728173155488_)" points="32.52,73.93 
				15.79,50.71 15.98,50.5 41.04,64.3 			"/>
			
				<radialGradient id="SVGID_00000067915909979994475420000004804477645751546041_" cx="35.6941" cy="66.9141" r="6.8817" gradientUnits="userSpaceOnUse">
				<stop  offset="0" style="stop-color:#00A651;stop-opacity:0.1"/>
				<stop  offset="0.6956" style="stop-color:#00A651"/>
			</radialGradient>
			<path fill="url(#SVGID_00000067915909979994475420000004804477645751546041_)" d="M32.07,75.6c3.3,2.92,8.33,2.61,11.25-0.68
				c2.92-3.3,2.61-8.34-0.68-11.25c-3.3-2.92-8.34-2.62-11.25,0.68C28.47,67.64,28.77,72.68,32.07,75.6z"/>
		</g>
		<g>
			
				<linearGradient id="SVGID_00000120538223231995795110000001248299856622834586_" gradientUnits="userSpaceOnUse" x1="311.3897" y1="162.814" x2="311.3897" y2="141.4759" gradientTransform="matrix(-0.663 0.7486 -0.7486 -0.663 386.6227 5.4108)">
				<stop  offset="0" style="stop-color:#FFFFFF"/>
				<stop  offset="0.1733" style="stop-color:#F3F7FC"/>
				<stop  offset="0.4471" style="stop-color:#DBE8F6"/>
				<stop  offset="0.7851" style="stop-color:#B6D3EF"/>
				<stop  offset="1" style="stop-color:#9AC4E9"/>
			</linearGradient>
			<polygon opacity="0.71" fill="url(#SVGID_00000120538223231995795110000001248299856622834586_)" points="74.92,153.89 
				58.19,130.68 58.39,130.46 83.45,144.27 			"/>
			
				<radialGradient id="SVGID_00000047061644924166422650000002323238556763108792_" cx="78.1" cy="146.881" r="6.8817" gradientUnits="userSpaceOnUse">
				<stop  offset="0" style="stop-color:#00A651;stop-opacity:0.1"/>
				<stop  offset="0.6956" style="stop-color:#00A651"/>
			</radialGradient>
			<path fill="url(#SVGID_00000047061644924166422650000002323238556763108792_)" d="M74.48,155.57c3.3,2.92,8.33,2.61,11.25-0.68
				c2.92-3.3,2.61-8.34-0.68-11.25c-3.3-2.92-8.34-2.62-11.25,0.68C70.87,147.6,71.18,152.65,74.48,155.57z"/>
		</g>
		<g>
			
				<linearGradient id="SVGID_00000163784640983596280430000015358852195863688089_" gradientUnits="userSpaceOnUse" x1="279.2175" y1="123.4153" x2="279.2175" y2="102.0778" gradientTransform="matrix(-0.9548 -0.2972 0.2972 -0.9548 348.1111 233.0835)">
				<stop  offset="0" style="stop-color:#FFFFFF"/>
				<stop  offset="0.1733" style="stop-color:#F3F7FC"/>
				<stop  offset="0.4471" style="stop-color:#DBE8F6"/>
				<stop  offset="0.7851" style="stop-color:#B6D3EF"/>
				<stop  offset="1" style="stop-color:#9AC4E9"/>
			</linearGradient>
			<polygon opacity="0.71" fill="url(#SVGID_00000163784640983596280430000015358852195863688089_)" points="103.76,57 
				118.06,32.22 118.33,32.31 116.04,60.83 			"/>
			
				<radialGradient id="SVGID_00000113324420079661222760000007270121961941847954_" cx="107.1314" cy="57.5422" r="7.6374" gradientUnits="userSpaceOnUse">
				<stop  offset="0" style="stop-color:#00A651;stop-opacity:0.1"/>
				<stop  offset="0.6956" style="stop-color:#00A651"/>
			</radialGradient>
			<path fill="url(#SVGID_00000113324420079661222760000007270121961941847954_)" d="M102.05,57.28c-1.31,4.2,1.04,8.67,5.24,9.98
				c4.2,1.31,8.67-1.04,9.98-5.24c1.31-4.21-1.04-8.67-5.24-9.98C107.83,50.73,103.36,53.08,102.05,57.28z"/>
		</g>
		<g>
			
				<linearGradient id="SVGID_00000023975023615993426840000013688502543971979410_" gradientUnits="userSpaceOnUse" x1="317.1028" y1="35.7951" x2="317.1028" y2="14.4575" gradientTransform="matrix(-0.9548 -0.2972 0.2972 -0.9548 348.1111 233.0835)">
				<stop  offset="0" style="stop-color:#FFFFFF"/>
				<stop  offset="0.1733" style="stop-color:#F3F7FC"/>
				<stop  offset="0.4471" style="stop-color:#DBE8F6"/>
				<stop  offset="0.7851" style="stop-color:#B6D3EF"/>
				<stop  offset="1" style="stop-color:#9AC4E9"/>
			</linearGradient>
			<polygon opacity="0.71" fill="url(#SVGID_00000023975023615993426840000013688502543971979410_)" points="41.54,129.4 
				55.84,104.62 56.12,104.71 53.82,133.23 			"/>
			
				<radialGradient id="SVGID_00000121964581544147688100000011528151936291473793_" cx="44.9178" cy="129.9426" r="7.6374" gradientUnits="userSpaceOnUse">
				<stop  offset="0" style="stop-color:#00A651;stop-opacity:0.1"/>
				<stop  offset="0.6956" style="stop-color:#00A651"/>
			</radialGradient>
			<path fill="url(#SVGID_00000121964581544147688100000011528151936291473793_)" d="M39.83,129.68c-1.31,4.2,1.04,8.67,5.24,9.98
				c4.2,1.31,8.67-1.04,9.98-5.24c1.31-4.21-1.04-8.67-5.24-9.98C45.62,123.13,41.14,125.48,39.83,129.68z"/>
		</g>
		<g>
			
				<linearGradient id="SVGID_00000138549867152040937620000005450665048007932308_" gradientUnits="userSpaceOnUse" x1="250.981" y1="19.5762" x2="250.981" y2="-1.7614" gradientTransform="matrix(-0.9548 -0.2972 0.2972 -0.9548 348.1111 233.0835)">
				<stop  offset="0" style="stop-color:#FFFFFF"/>
				<stop  offset="0.1733" style="stop-color:#F3F7FC"/>
				<stop  offset="0.4471" style="stop-color:#DBE8F6"/>
				<stop  offset="0.7851" style="stop-color:#B6D3EF"/>
				<stop  offset="1" style="stop-color:#9AC4E9"/>
			</linearGradient>
			<polygon opacity="0.71" fill="url(#SVGID_00000138549867152040937620000005450665048007932308_)" points="99.86,164.54 
				114.16,139.76 114.43,139.84 112.14,168.36 			"/>
			
				<radialGradient id="SVGID_00000160190036191671574310000012056707667643184531_" cx="103.2306" cy="165.0798" r="7.6374" gradientUnits="userSpaceOnUse">
				<stop  offset="0" style="stop-color:#00A651;stop-opacity:0.1"/>
				<stop  offset="0.6956" style="stop-color:#00A651"/>
			</radialGradient>
			<path fill="url(#SVGID_00000160190036191671574310000012056707667643184531_)" d="M98.15,164.82c-1.31,4.2,1.04,8.67,5.24,9.98
				c4.2,1.31,8.67-1.04,9.98-5.24c1.31-4.21-1.04-8.67-5.24-9.98C103.93,158.27,99.46,160.62,98.15,164.82z"/>
		</g>
		<g>
			
				<linearGradient id="SVGID_00000089561931443009301370000002959703732114549162_" gradientUnits="userSpaceOnUse" x1="170.1991" y1="14.0887" x2="170.1991" y2="-7.2487" gradientTransform="matrix(-0.1209 -0.9927 0.9927 -0.1209 126.1451 290.875)">
				<stop  offset="0" style="stop-color:#FFFFFF"/>
				<stop  offset="0.1733" style="stop-color:#F3F7FC"/>
				<stop  offset="0.4471" style="stop-color:#DBE8F6"/>
				<stop  offset="0.7851" style="stop-color:#B6D3EF"/>
				<stop  offset="1" style="stop-color:#9AC4E9"/>
			</linearGradient>
			<polygon opacity="0.71" fill="url(#SVGID_00000089561931443009301370000002959703732114549162_)" points="91.07,117.21 
				119.54,120.07 119.57,120.36 92.62,129.97 			"/>
			
				<radialGradient id="SVGID_00000127767109886351267480000005647980370604225184_" cx="90.1887" cy="120.3402" r="8.0842" gradientUnits="userSpaceOnUse">
				<stop  offset="0" style="stop-color:#00A651;stop-opacity:0.1"/>
				<stop  offset="0.6956" style="stop-color:#00A651"/>
			</radialGradient>
			<path fill="url(#SVGID_00000127767109886351267480000005647980370604225184_)" d="M90.11,115.76c-4.37,0.53-7.48,4.51-6.95,8.88
				c0.53,4.37,4.51,7.48,8.88,6.95c4.37-0.53,7.48-4.51,6.95-8.88C98.46,118.34,94.48,115.23,90.11,115.76z"/>
		</g>
		<g>
			
				<linearGradient id="SVGID_00000152967790229374167320000005949184089248589216_" gradientUnits="userSpaceOnUse" x1="139.8373" y1="-42.7025" x2="139.8373" y2="-64.0398" gradientTransform="matrix(-0.1209 -0.9927 0.9927 -0.1209 126.1451 290.875)">
				<stop  offset="0" style="stop-color:#FFFFFF"/>
				<stop  offset="0.1733" style="stop-color:#F3F7FC"/>
				<stop  offset="0.4471" style="stop-color:#DBE8F6"/>
				<stop  offset="0.7851" style="stop-color:#B6D3EF"/>
				<stop  offset="1" style="stop-color:#9AC4E9"/>
			</linearGradient>
			<polygon opacity="0.71" fill="url(#SVGID_00000152967790229374167320000005949184089248589216_)" points="38.36,154.21 
				66.83,157.08 66.87,157.37 39.92,166.98 			"/>
			
				<radialGradient id="SVGID_00000158711592687990743340000009380305554663819926_" cx="37.4829" cy="157.3464" r="8.0842" gradientUnits="userSpaceOnUse">
				<stop  offset="0" style="stop-color:#00A651;stop-opacity:0.1"/>
				<stop  offset="0.6956" style="stop-color:#00A651"/>
			</radialGradient>
			<path fill="url(#SVGID_00000158711592687990743340000009380305554663819926_)" d="M37.4,152.77c-4.37,0.53-7.48,4.51-6.95,8.88
				c0.53,4.37,4.51,7.48,8.88,6.95c4.37-0.53,7.48-4.51,6.95-8.88C45.75,155.35,41.78,152.24,37.4,152.77z"/>
		</g>
		
			<linearGradient id="SVGID_00000040546281800061498760000014353343393336700309_" gradientUnits="userSpaceOnUse" x1="5.25" y1="31.7503" x2="136.4976" y2="31.7503">
			<stop  offset="0" style="stop-color:#090909"/>
			<stop  offset="0.3252" style="stop-color:#6B6B6B"/>
			<stop  offset="1" style="stop-color:#000000"/>
		</linearGradient>
		
			<path fill="url(#SVGID_00000040546281800061498760000014353343393336700309_)" stroke="#000000" stroke-width="0.5" stroke-linecap="round" stroke-linejoin="round" stroke-miterlimit="10" d="
			M136.5,31.17c0,7.48-29.38,13.54-65.62,13.54S5.25,38.65,5.25,31.17V18.79c0,7.48,29.38,13.54,65.62,13.54s65.62-6.06,65.62-13.54
			V31.17z"/>
		
			<ellipse fill="#5C5C5C" stroke="#000000" stroke-width="0.5" stroke-miterlimit="10" cx="70.87" cy="18.79" rx="65.62" ry="13.54"/>
		
			<path fill="none" stroke="#000000" stroke-width="0.5" stroke-linecap="round" stroke-linejoin="round" stroke-miterlimit="10" d="
			M297.21,171.3c0,7.16-28.12,12.96-62.8,12.96s-62.8-5.8-62.8-12.96V95.4c0,7.16,28.12,12.96,62.8,12.96s62.8-5.8,62.8-12.96V171.3
			z"/>
		<ellipse fill="none" stroke="#000000" stroke-width="0.5" stroke-miterlimit="10" cx="234.41" cy="95.4" rx="62.8" ry="12.96"/>
		<ellipse fill="none" stroke="#000000" stroke-width="0.25" stroke-miterlimit="10" cx="234.41" cy="171.3" rx="62.8" ry="12.96"/>
		
			<linearGradient id="SVGID_00000080200733137417561710000008890203952667633065_" gradientUnits="userSpaceOnUse" x1="168.7903" y1="99.8857" x2="300.0379" y2="99.8857">
			<stop  offset="0" style="stop-color:#090909"/>
			<stop  offset="0.3252" style="stop-color:#6B6B6B"/>
			<stop  offset="1" style="stop-color:#000000"/>
		</linearGradient>
		
			<path fill="url(#SVGID_00000080200733137417561710000008890203952667633065_)" stroke="#000000" stroke-width="0.5" stroke-linecap="round" stroke-linejoin="round" stroke-miterlimit="10" d="
			M300.04,99.3c0,7.48-29.38,13.54-65.62,13.54s-65.62-6.06-65.62-13.54V86.93c0,7.48,29.38,13.54,65.62,13.54
			s65.62-6.06,65.62-13.54V99.3z"/>
		
			<ellipse fill="#5C5C5C" stroke="#000000" stroke-width="0.5" stroke-miterlimit="10" cx="234.41" cy="86.93" rx="65.62" ry="13.54"/>
		<g>
			
				<radialGradient id="SVGID_00000146498951017464530050000015719864511748572324_" cx="223.9414" cy="145.6884" r="8.1129" gradientUnits="userSpaceOnUse">
				<stop  offset="0" style="stop-color:#00A651;stop-opacity:0.1"/>
				<stop  offset="0.6956" style="stop-color:#00A651"/>
			</radialGradient>
			<path fill="url(#SVGID_00000146498951017464530050000015719864511748572324_)" d="M229.27,141.05c-3.84-2.15-8.7-0.79-10.85,3.05
				c-2.16,3.84-0.79,8.7,3.05,10.85c3.84,2.16,8.7,0.79,10.85-3.05C234.48,148.07,233.11,143.2,229.27,141.05z"/>
			<path fill="none" stroke="#00A651" stroke-width="0.5" stroke-miterlimit="10" d="M232.03,155.4c1.51-1.36,2.62-3.19,3.08-5.33
				c0.45-2.14,0.19-4.26-0.64-6.12"/>
			<path fill="none" stroke="#00A651" stroke-width="0.5" stroke-miterlimit="10" d="M235.33,154.95c0.9-1.29,1.57-2.79,1.92-4.42
				c0.35-1.64,0.35-3.27,0.05-4.82"/>
		</g>
		<g>
			
				<radialGradient id="SVGID_00000176758681412860731900000002277242316023577754_" cx="230.8977" cy="119.4699" r="8.1129" gradientUnits="userSpaceOnUse">
				<stop  offset="0" style="stop-color:#00A651;stop-opacity:0.1"/>
				<stop  offset="0.6956" style="stop-color:#00A651"/>
			</radialGradient>
			<path fill="url(#SVGID_00000176758681412860731900000002277242316023577754_)" d="M236.23,114.83c-3.84-2.15-8.7-0.79-10.85,3.05
				c-2.16,3.84-0.79,8.7,3.05,10.85c3.84,2.16,8.7,0.79,10.85-3.05C241.44,121.85,240.07,116.99,236.23,114.83z"/>
			<path fill="none" stroke="#00A651" stroke-width="0.5" stroke-miterlimit="10" d="M238.99,129.18c1.51-1.36,2.62-3.19,3.08-5.33
				c0.45-2.14,0.19-4.26-0.64-6.12"/>
			<path fill="none" stroke="#00A651" stroke-width="0.5" stroke-miterlimit="10" d="M242.29,128.73c0.9-1.29,1.57-2.79,1.92-4.42
				c0.35-1.64,0.35-3.27,0.05-4.82"/>
		</g>
		<g>
			
				<radialGradient id="SVGID_00000128468575482140016780000013537847527426496926_" cx="183.8606" cy="150.4154" r="5.7229" gradientUnits="userSpaceOnUse">
				<stop  offset="0" style="stop-color:#00A651;stop-opacity:0.1"/>
				<stop  offset="0.6956" style="stop-color:#00A651"/>
			</radialGradient>
			<path fill="url(#SVGID_00000128468575482140016780000013537847527426496926_)" d="M192.68,152.35c-0.28-4.39-4.07-7.73-8.47-7.45
				c-4.39,0.28-7.73,4.07-7.45,8.47c0.28,4.39,4.07,7.73,8.46,7.45C189.63,160.53,192.96,156.74,192.68,152.35z"/>
			<path fill="none" stroke="#00A651" stroke-width="0.5" stroke-miterlimit="10" d="M182.14,162.47c1.96,0.53,4.1,0.46,6.14-0.32
				c2.04-0.78,3.68-2.16,4.78-3.87"/>
			<path fill="none" stroke="#00A651" stroke-width="0.5" stroke-miterlimit="10" d="M184.31,165c1.58,0.05,3.19-0.2,4.76-0.8
				c1.57-0.6,2.94-1.49,4.07-2.58"/>
		</g>
		<g>
			
				<radialGradient id="SVGID_00000092429101189838580380000001947275612147750317_" cx="249.7701" cy="156.1718" r="5.7228" gradientUnits="userSpaceOnUse">
				<stop  offset="0" style="stop-color:#00A651;stop-opacity:0.1"/>
				<stop  offset="0.6956" style="stop-color:#00A651"/>
			</radialGradient>
			<path fill="url(#SVGID_00000092429101189838580380000001947275612147750317_)" d="M258.59,158.1c-0.28-4.39-4.07-7.73-8.47-7.45
				c-4.39,0.28-7.73,4.07-7.45,8.47c0.28,4.4,4.07,7.73,8.46,7.45C255.54,166.29,258.87,162.5,258.59,158.1z"/>
			<path fill="none" stroke="#00A651" stroke-width="0.5" stroke-miterlimit="10" d="M248.05,168.23c1.96,0.53,4.1,0.46,6.14-0.32
				c2.04-0.78,3.68-2.16,4.78-3.87"/>
			<path fill="none" stroke="#00A651" stroke-width="0.5" stroke-miterlimit="10" d="M250.22,170.75c1.58,0.06,3.19-0.2,4.76-0.8
				c1.57-0.6,2.94-1.49,4.07-2.58"/>
		</g>
		<g>
			
				<radialGradient id="SVGID_00000033365693297909934670000004040485657618919829_" cx="283.3689" cy="114.0239" r="7.0259" gradientUnits="userSpaceOnUse">
				<stop  offset="0" style="stop-color:#00A651;stop-opacity:0.1"/>
				<stop  offset="0.6956" style="stop-color:#00A651"/>
			</radialGradient>
			<path fill="url(#SVGID_00000033365693297909934670000004040485657618919829_)" d="M289.5,123.4c3.53-2.63,4.27-7.62,1.64-11.15
				c-2.63-3.53-7.62-4.27-11.16-1.64c-3.53,2.63-4.27,7.62-1.64,11.15C280.97,125.29,285.96,126.02,289.5,123.4z"/>
			<path fill="none" stroke="#00A651" stroke-width="0.5" stroke-miterlimit="10" d="M275.26,120.06c0.63,1.93,1.85,3.69,3.61,4.98
				c1.76,1.28,3.81,1.91,5.84,1.91"/>
			<path fill="none" stroke="#00A651" stroke-width="0.5" stroke-miterlimit="10" d="M274.33,123.26c0.81,1.35,1.9,2.57,3.26,3.56
				c1.35,0.99,2.85,1.66,4.38,2.01"/>
		</g>
		<g>
			
				<radialGradient id="SVGID_00000129912094075901539320000001613069172054107294_" cx="183.5907" cy="117.7748" r="7.0256" gradientUnits="userSpaceOnUse">
				<stop  offset="0" style="stop-color:#00A651;stop-opacity:0.1"/>
				<stop  offset="0.6956" style="stop-color:#00A651"/>
			</radialGradient>
			<path fill="url(#SVGID_00000129912094075901539320000001613069172054107294_)" d="M189.72,127.15c3.53-2.63,4.27-7.62,1.64-11.16
				c-2.63-3.53-7.62-4.27-11.15-1.64c-3.54,2.63-4.27,7.62-1.65,11.15C181.19,129.04,186.18,129.77,189.72,127.15z"/>
			<path fill="none" stroke="#00A651" stroke-width="0.5" stroke-miterlimit="10" d="M175.49,123.81c0.63,1.93,1.85,3.69,3.61,4.98
				c1.76,1.28,3.81,1.91,5.85,1.91"/>
			<path fill="none" stroke="#00A651" stroke-width="0.5" stroke-miterlimit="10" d="M174.55,127.01c0.81,1.35,1.9,2.57,3.26,3.56
				c1.35,0.99,2.85,1.66,4.38,2.01"/>
		</g>
		<g>
			
				<radialGradient id="SVGID_00000044174618854466385670000013253336579338015881_" cx="282.6961" cy="161.9114" r="7.6277" gradientUnits="userSpaceOnUse">
				<stop  offset="0" style="stop-color:#00A651;stop-opacity:0.1"/>
				<stop  offset="0.6956" style="stop-color:#00A651"/>
			</radialGradient>
			<path fill="url(#SVGID_00000044174618854466385670000013253336579338015881_)" d="M280.74,173.02c4.12,1.53,8.71-0.56,10.25-4.69
				c1.54-4.13-0.56-8.72-4.69-10.25c-4.13-1.54-8.72,0.56-10.25,4.69C274.51,166.89,276.61,171.48,280.74,173.02z"/>
			<path fill="none" stroke="#00A651" stroke-width="0.5" stroke-miterlimit="10" d="M275.8,159.26c-1.28,1.58-2.1,3.56-2.21,5.74
				c-0.12,2.18,0.47,4.24,1.58,5.94"/>
			<path fill="none" stroke="#00A651" stroke-width="0.5" stroke-miterlimit="10" d="M272.6,160.21c-0.69,1.42-1.12,3-1.21,4.67
				c-0.09,1.68,0.16,3.29,0.7,4.77"/>
		</g>
		<g>
			
				<radialGradient id="SVGID_00000153703952174572265840000017324373161684470948_" cx="208.5053" cy="125.0223" r="7.6277" gradientUnits="userSpaceOnUse">
				<stop  offset="0" style="stop-color:#00A651;stop-opacity:0.1"/>
				<stop  offset="0.6956" style="stop-color:#00A651"/>
			</radialGradient>
			<path fill="url(#SVGID_00000153703952174572265840000017324373161684470948_)" d="M206.55,136.13c4.12,1.53,8.71-0.56,10.25-4.69
				c1.54-4.13-0.56-8.72-4.69-10.25c-4.13-1.54-8.72,0.56-10.25,4.69C200.32,130,202.42,134.59,206.55,136.13z"/>
			<path fill="none" stroke="#00A651" stroke-width="0.5" stroke-miterlimit="10" d="M201.6,122.37c-1.28,1.58-2.1,3.56-2.21,5.74
				c-0.12,2.18,0.47,4.24,1.58,5.94"/>
			<path fill="none" stroke="#00A651" stroke-width="0.5" stroke-miterlimit="10" d="M198.41,123.32c-0.69,1.42-1.12,3-1.21,4.67
				c-0.09,1.68,0.16,3.29,0.7,4.77"/>
		</g>
		<g>
			
				<radialGradient id="SVGID_00000055669025076747356670000016638581669168142740_" cx="284.7814" cy="140.5051" r="7.6278" gradientUnits="userSpaceOnUse">
				<stop  offset="0" style="stop-color:#00A651;stop-opacity:0.1"/>
				<stop  offset="0.6956" style="stop-color:#00A651"/>
			</radialGradient>
			<path fill="url(#SVGID_00000055669025076747356670000016638581669168142740_)" d="M282.83,151.61c4.12,1.53,8.71-0.56,10.25-4.69
				c1.54-4.13-0.56-8.72-4.69-10.25c-4.13-1.54-8.72,0.56-10.25,4.69C276.59,145.48,278.7,150.07,282.83,151.61z"/>
			<path fill="none" stroke="#00A651" stroke-width="0.5" stroke-miterlimit="10" d="M277.88,137.86c-1.28,1.58-2.1,3.56-2.22,5.74
				c-0.12,2.18,0.47,4.24,1.58,5.94"/>
			<path fill="none" stroke="#00A651" stroke-width="0.5" stroke-miterlimit="10" d="M274.69,138.81c-0.69,1.42-1.12,3-1.21,4.67
				c-0.09,1.68,0.16,3.29,0.69,4.77"/>
		</g>
		<g>
			
				<radialGradient id="SVGID_00000085958016203416715270000003173711015479875743_" cx="215.4637" cy="167.2896" r="7.0113" gradientUnits="userSpaceOnUse">
				<stop  offset="0" style="stop-color:#00A651;stop-opacity:0.1"/>
				<stop  offset="0.6956" style="stop-color:#00A651"/>
			</radialGradient>
			<path fill="url(#SVGID_00000085958016203416715270000003173711015479875743_)" d="M208.54,172.14c0.96,4.3,5.21,7.01,9.51,6.05
				c4.3-0.95,7.01-5.21,6.05-9.51c-0.95-4.3-5.21-7.01-9.51-6.05C210.3,163.58,207.59,167.84,208.54,172.14z"/>
			<path fill="none" stroke="#00A651" stroke-width="0.5" stroke-miterlimit="10" d="M217.4,160.51c-2.02-0.21-4.13,0.18-6.02,1.26
				c-1.89,1.09-3.3,2.7-4.13,4.56"/>
			<path fill="none" stroke="#00A651" stroke-width="0.5" stroke-miterlimit="10" d="M214.86,158.35c-1.57,0.19-3.12,0.69-4.58,1.52
				c-1.46,0.83-2.67,1.92-3.62,3.18"/>
		</g>
		<g>
			
				<radialGradient id="SVGID_00000119799212220234662750000001996197222972838283_" cx="259.0316" cy="136.7809" r="7.0113" gradientUnits="userSpaceOnUse">
				<stop  offset="0" style="stop-color:#00A651;stop-opacity:0.1"/>
				<stop  offset="0.6956" style="stop-color:#00A651"/>
			</radialGradient>
			<path fill="url(#SVGID_00000119799212220234662750000001996197222972838283_)" d="M252.11,141.63c0.96,4.3,5.21,7.01,9.51,6.05
				c4.3-0.95,7.01-5.21,6.05-9.51c-0.95-4.3-5.21-7.01-9.51-6.05C253.86,133.07,251.16,137.33,252.11,141.63z"/>
			<path fill="none" stroke="#00A651" stroke-width="0.5" stroke-miterlimit="10" d="M260.96,130c-2.02-0.21-4.13,0.18-6.02,1.26
				c-1.89,1.09-3.3,2.7-4.13,4.56"/>
			<path fill="none" stroke="#00A651" stroke-width="0.5" stroke-miterlimit="10" d="M258.43,127.84c-1.57,0.19-3.12,0.69-4.58,1.52
				c-1.46,0.83-2.67,1.92-3.62,3.18"/>
		</g>
		<g>
			<path fill="#812990" d="M27.1,193.03h1.35v9.37h4.58v1.14H27.1V193.03z"/>
			<path fill="#812990" d="M34.28,201.52c0-1.73,1.44-2.56,4.77-2.93c-0.02-0.98-0.34-1.92-1.6-1.92c-0.9,0-1.71,0.4-2.32,0.8
				l-0.51-0.9c0.72-0.48,1.81-1.01,3.06-1.01c1.89,0,2.71,1.27,2.71,3.19v4.79h-1.09l-0.13-0.93h-0.05
				c-0.74,0.62-1.59,1.12-2.56,1.12C35.25,203.73,34.28,202.93,34.28,201.52z M39.05,201.65v-2.12c-2.63,0.3-3.48,0.9-3.48,1.91
				c0,0.87,0.59,1.2,1.35,1.2S38.3,202.31,39.05,201.65z"/>
			<path fill="#812990" d="M42.83,195.76h1.09l0.11,1.41h0.05c0.54-0.98,1.35-1.6,2.21-1.6c0.35,0,0.59,0.05,0.83,0.16l-0.29,1.14
				c-0.22-0.06-0.4-0.1-0.71-0.1c-0.66,0-1.44,0.46-1.97,1.78v5h-1.33V195.76z"/>
			<path fill="#812990" d="M47.65,205.03c0-0.66,0.43-1.28,1.14-1.76v-0.06c-0.38-0.24-0.69-0.66-0.69-1.27
				c0-0.66,0.45-1.17,0.85-1.44v-0.06c-0.51-0.42-1.01-1.17-1.01-2.1c0-1.7,1.35-2.77,2.93-2.77c0.43,0,0.82,0.08,1.11,0.19h2.71
				v1.03H53.1c0.37,0.35,0.62,0.93,0.62,1.59c0,1.67-1.27,2.71-2.85,2.71c-0.38,0-0.8-0.1-1.15-0.27c-0.29,0.24-0.5,0.5-0.5,0.93
				c0,0.48,0.32,0.83,1.36,0.83h1.51c1.81,0,2.72,0.58,2.72,1.86c0,1.46-1.52,2.71-3.94,2.71
				C48.97,207.13,47.65,206.38,47.65,205.03z M53.52,204.63c0-0.72-0.54-0.96-1.57-0.96h-1.33c-0.3,0-0.67-0.03-1.01-0.13
				c-0.56,0.4-0.8,0.87-0.8,1.31c0,0.83,0.85,1.35,2.26,1.35C52.54,206.2,53.52,205.43,53.52,204.63z M52.52,198.34
				c0-1.12-0.74-1.81-1.65-1.81s-1.65,0.67-1.65,1.81s0.75,1.84,1.65,1.84C51.77,200.18,52.52,199.47,52.52,198.34z"/>
			<path fill="#812990" d="M55.53,199.65c0-2.53,1.71-4.08,3.49-4.08c1.99,0,3.12,1.41,3.12,3.65c0,0.29-0.02,0.53-0.06,0.79h-5.24
				c0.11,1.6,1.09,2.66,2.56,2.66c0.75,0,1.41-0.21,1.95-0.58l0.46,0.85c-0.67,0.48-1.51,0.8-2.58,0.8
				C57.17,203.73,55.53,202.23,55.53,199.65z M60.97,198.98c0-1.54-0.72-2.36-1.91-2.36c-1.09,0-2.05,0.87-2.21,2.36H60.97z"/>
			<path d="M66.14,195.76h1.38l1.46,4.41c0.24,0.77,0.48,1.55,0.72,2.31h0.06c0.22-0.75,0.48-1.54,0.72-2.31l1.46-4.41h1.31
				l-2.76,7.79h-1.55L66.14,195.76z"/>
			<path d="M74.12,199.67c0-2.61,1.7-4.1,3.6-4.1c1.91,0,3.62,1.49,3.62,4.1c0,2.58-1.71,4.07-3.62,4.07
				C75.82,203.73,74.12,202.24,74.12,199.67z M79.97,199.67c0-1.79-0.9-3-2.24-3c-1.33,0-2.23,1.2-2.23,3c0,1.78,0.9,2.96,2.23,2.96
				C79.07,202.63,79.97,201.44,79.97,199.67z"/>
			<path d="M83.38,201.97v-9.84h1.33v9.93c0,0.42,0.18,0.56,0.38,0.56c0.08,0,0.14,0,0.27-0.03l0.18,0.99
				c-0.19,0.1-0.43,0.14-0.77,0.14C83.78,203.73,83.38,203.09,83.38,201.97z"/>
			<path d="M87.35,200.69v-4.93h1.33v4.76c0,1.44,0.45,2.07,1.47,2.07c0.79,0,1.35-0.4,2.07-1.31v-5.51h1.33v7.79h-1.09l-0.11-1.22
				H92.3c-0.72,0.85-1.49,1.41-2.56,1.41C88.09,203.73,87.35,202.68,87.35,200.69z"/>
			<path d="M96.18,195.76h1.09l0.11,1.12h0.05c0.69-0.74,1.49-1.31,2.42-1.31c1.2,0,1.84,0.56,2.16,1.47
				c0.8-0.87,1.62-1.47,2.56-1.47c1.6,0,2.37,1.06,2.37,3.04v4.93h-1.33v-4.76c0-1.46-0.46-2.07-1.44-2.07
				c-0.61,0-1.23,0.38-1.95,1.19v5.64h-1.33v-4.76c0-1.46-0.45-2.07-1.44-2.07c-0.58,0-1.22,0.38-1.94,1.19v5.64h-1.33V195.76z"/>
			<path d="M108.88,199.65c0-2.53,1.71-4.08,3.49-4.08c1.99,0,3.12,1.41,3.12,3.65c0,0.29-0.02,0.53-0.06,0.79h-5.24
				c0.11,1.6,1.09,2.66,2.56,2.66c0.75,0,1.41-0.21,1.95-0.58l0.46,0.85c-0.67,0.48-1.51,0.8-2.58,0.8
				C110.51,203.73,108.88,202.23,108.88,199.65z M114.31,198.98c0-1.54-0.72-2.36-1.91-2.36c-1.09,0-2.05,0.87-2.21,2.36H114.31z"/>
			<path fill="#812990" d="M19.07,212.26h6.06v1.14h-4.71v3.54h4.01v1.14h-4.01v4.69h-1.35V212.26z"/>
			<path fill="#812990" d="M26.07,218.87c0-2.53,1.71-4.08,3.49-4.08c1.99,0,3.12,1.41,3.12,3.65c0,0.29-0.02,0.53-0.06,0.79h-5.24
				c0.11,1.6,1.09,2.66,2.56,2.66c0.75,0,1.41-0.21,1.95-0.58l0.46,0.85c-0.67,0.48-1.51,0.8-2.58,0.8
				C27.7,222.96,26.07,221.45,26.07,218.87z M31.5,218.2c0-1.54-0.72-2.35-1.91-2.35c-1.09,0-2.05,0.86-2.21,2.35H31.5z"/>
			<path fill="#812990" d="M33.74,214.98h1.36l1.14,4.52c0.18,0.71,0.34,1.38,0.46,2.21h0.06c0.16-0.83,0.3-1.51,0.48-2.21
				l1.17-4.52h1.43l1.19,4.52c0.18,0.71,0.35,1.38,0.51,2.21h0.06c0.16-0.83,0.29-1.51,0.46-2.21l1.14-4.52h1.27l-2.1,7.79h-1.68
				l-1.06-4.18c-0.19-0.72-0.34-1.39-0.51-2.31h-0.06c-0.14,0.91-0.29,1.6-0.5,2.31l-1.04,4.18h-1.6L33.74,214.98z"/>
			<path fill="#812990" d="M45.53,218.87c0-2.53,1.71-4.08,3.49-4.08c1.99,0,3.12,1.41,3.12,3.65c0,0.29-0.02,0.53-0.06,0.79h-5.24
				c0.11,1.6,1.09,2.66,2.56,2.66c0.75,0,1.41-0.21,1.95-0.58l0.46,0.85c-0.67,0.48-1.51,0.8-2.58,0.8
				C47.16,222.96,45.53,221.45,45.53,218.87z M50.96,218.2c0-1.54-0.72-2.35-1.91-2.35c-1.09,0-2.05,0.86-2.21,2.35H50.96z"/>
			<path fill="#812990" d="M54.05,214.98h1.09l0.11,1.41h0.05c0.54-0.98,1.35-1.6,2.21-1.6c0.35,0,0.59,0.05,0.83,0.16l-0.29,1.14
				c-0.22-0.06-0.4-0.1-0.71-0.1c-0.66,0-1.44,0.46-1.97,1.78v5h-1.33V214.98z"/>
			<path d="M62.25,218.89c0-2.61,1.75-4.1,3.75-4.1c1.03,0,1.73,0.4,2.28,0.91l-0.66,0.83c-0.43-0.4-0.93-0.64-1.55-0.64
				c-1.41,0-2.44,1.2-2.44,3c0,1.78,0.96,2.96,2.39,2.96c0.72,0,1.36-0.32,1.83-0.74l0.58,0.85c-0.71,0.64-1.59,0.99-2.52,0.99
				C63.84,222.96,62.25,221.47,62.25,218.89z"/>
			<path d="M69.22,218.89c0-2.61,1.7-4.1,3.6-4.1c1.91,0,3.62,1.49,3.62,4.1c0,2.58-1.71,4.07-3.62,4.07
				C70.92,222.96,69.22,221.47,69.22,218.89z M75.07,218.89c0-1.79-0.9-3-2.24-3c-1.33,0-2.23,1.2-2.23,3c0,1.78,0.9,2.96,2.23,2.96
				C74.17,221.85,75.07,220.67,75.07,218.89z"/>
			<path d="M78.48,221.2v-9.84h1.33v9.93c0,0.42,0.18,0.56,0.38,0.56c0.08,0,0.14,0,0.27-0.03l0.18,0.99
				c-0.19,0.1-0.43,0.14-0.77,0.14C78.88,222.96,78.48,222.32,78.48,221.2z"/>
			<path d="M82.57,221.2v-9.84h1.33v9.93c0,0.42,0.18,0.56,0.38,0.56c0.08,0,0.14,0,0.27-0.03l0.18,0.99
				c-0.19,0.1-0.43,0.14-0.77,0.14C82.97,222.96,82.57,222.32,82.57,221.2z"/>
			<path d="M86.44,212.51c0-0.51,0.37-0.87,0.88-0.87s0.88,0.35,0.88,0.87c0,0.53-0.37,0.87-0.88,0.87S86.44,213.04,86.44,212.51z
				 M86.65,214.98h1.33v7.79h-1.33V214.98z"/>
			<path d="M89.74,221.84l0.61-0.77c0.67,0.56,1.38,0.85,2.34,0.85c1.03,0,1.52-0.53,1.52-1.2c0-0.8-0.86-1.14-1.75-1.46
				c-1.17-0.42-2.29-0.98-2.29-2.26c0-1.25,0.99-2.21,2.69-2.21c0.98,0,1.81,0.37,2.42,0.88l-0.61,0.77
				c-0.54-0.4-1.11-0.62-1.79-0.62c-0.99,0-1.43,0.54-1.43,1.12c0,0.71,0.67,0.99,1.65,1.33c1.22,0.43,2.39,0.96,2.39,2.37
				c0,1.27-1.01,2.32-2.85,2.32C91.51,222.96,90.46,222.54,89.74,221.84z"/>
			<path d="M97.11,212.51c0-0.51,0.37-0.87,0.88-0.87s0.88,0.35,0.88,0.87c0,0.53-0.37,0.87-0.88,0.87S97.11,213.04,97.11,212.51z
				 M97.32,214.98h1.33v7.79h-1.33V214.98z"/>
			<path d="M100.7,218.89c0-2.61,1.7-4.1,3.6-4.1c1.91,0,3.62,1.49,3.62,4.1c0,2.58-1.71,4.07-3.62,4.07
				C102.4,222.96,100.7,221.47,100.7,218.89z M106.55,218.89c0-1.79-0.9-3-2.24-3c-1.33,0-2.23,1.2-2.23,3
				c0,1.78,0.9,2.96,2.23,2.96C105.65,221.85,106.55,220.67,106.55,218.89z"/>
			<path d="M109.96,214.98h1.09l0.11,1.12h0.05c0.74-0.74,1.54-1.31,2.61-1.31c1.65,0,2.39,1.06,2.39,3.04v4.93h-1.33v-4.76
				c0-1.46-0.45-2.07-1.47-2.07c-0.79,0-1.35,0.4-2.11,1.19v5.64h-1.33V214.98z"/>
			<path d="M117.86,221.84l0.61-0.77c0.67,0.56,1.38,0.85,2.34,0.85c1.03,0,1.52-0.53,1.52-1.2c0-0.8-0.86-1.14-1.75-1.46
				c-1.17-0.42-2.29-0.98-2.29-2.26c0-1.25,0.99-2.21,2.69-2.21c0.98,0,1.81,0.37,2.42,0.88l-0.61,0.77
				c-0.54-0.4-1.11-0.62-1.79-0.62c-0.99,0-1.43,0.54-1.43,1.12c0,0.71,0.67,0.99,1.65,1.33c1.22,0.43,2.39,0.96,2.39,2.37
				c0,1.27-1.01,2.32-2.85,2.32C119.62,222.96,118.58,222.54,117.86,221.84z"/>
			<path fill="#812990" d="M15.27,240.61l0.75-0.88c0.77,0.79,1.84,1.27,2.95,1.27c1.38,0,2.19-0.69,2.19-1.7
				c0-1.07-0.77-1.41-1.75-1.84l-1.52-0.67c-0.98-0.42-2.11-1.15-2.11-2.71c0-1.6,1.39-2.79,3.3-2.79c1.28,0,2.37,0.53,3.11,1.27
				l-0.74,0.9c-0.64-0.61-1.46-0.98-2.37-0.98c-1.17,0-1.94,0.59-1.94,1.52c0,1.01,0.91,1.39,1.73,1.73l1.51,0.66
				c1.22,0.51,2.16,1.25,2.16,2.8c0,1.67-1.38,3-3.59,3C17.45,242.18,16.18,241.59,15.27,240.61z"/>
			<path fill="#812990" d="M24.46,234.2h1.09l0.11,1.12h0.05c0.69-0.74,1.49-1.31,2.42-1.31c1.2,0,1.84,0.56,2.16,1.47
				c0.8-0.87,1.62-1.47,2.56-1.47c1.6,0,2.37,1.06,2.37,3.04v4.93H33.9v-4.76c0-1.46-0.46-2.07-1.44-2.07
				c-0.61,0-1.23,0.38-1.95,1.19v5.64h-1.33v-4.76c0-1.46-0.45-2.07-1.44-2.07c-0.58,0-1.22,0.38-1.94,1.19v5.64h-1.33V234.2z"/>
			<path fill="#812990" d="M37.26,239.97c0-1.73,1.44-2.56,4.77-2.93c-0.02-0.98-0.34-1.92-1.6-1.92c-0.9,0-1.71,0.4-2.32,0.8
				l-0.51-0.9c0.72-0.48,1.81-1.01,3.06-1.01c1.89,0,2.71,1.27,2.71,3.19v4.79h-1.09l-0.13-0.93H42.1
				c-0.74,0.62-1.59,1.12-2.56,1.12C38.24,242.18,37.26,241.38,37.26,239.97z M42.04,240.1v-2.12c-2.63,0.3-3.48,0.9-3.48,1.91
				c0,0.87,0.59,1.2,1.35,1.2C40.66,241.09,41.29,240.76,42.04,240.1z"/>
			<path fill="#812990" d="M45.82,240.42v-9.84h1.33v9.93c0,0.42,0.18,0.56,0.38,0.56c0.08,0,0.14,0,0.27-0.03l0.18,0.99
				c-0.19,0.1-0.43,0.14-0.77,0.14C46.22,242.18,45.82,241.54,45.82,240.42z"/>
			<path fill="#812990" d="M49.9,240.42v-9.84h1.33v9.93c0,0.42,0.18,0.56,0.38,0.56c0.08,0,0.14,0,0.27-0.03l0.18,0.99
				c-0.19,0.1-0.43,0.14-0.77,0.14C50.3,242.18,49.9,241.54,49.9,240.42z"/>
			<path fill="#812990" d="M53.41,238.1c0-2.53,1.71-4.08,3.49-4.08c1.99,0,3.12,1.41,3.12,3.65c0,0.29-0.02,0.53-0.06,0.79h-5.24
				c0.11,1.6,1.09,2.66,2.56,2.66c0.75,0,1.41-0.21,1.95-0.58l0.46,0.85c-0.67,0.48-1.51,0.8-2.58,0.8
				C55.05,242.18,53.41,240.68,53.41,238.1z M58.84,237.42c0-1.54-0.72-2.35-1.91-2.35c-1.09,0-2.05,0.86-2.21,2.35H58.84z"/>
			<path fill="#812990" d="M61.93,234.2h1.09l0.11,1.41h0.05c0.54-0.98,1.35-1.6,2.21-1.6c0.35,0,0.59,0.05,0.83,0.16l-0.29,1.14
				c-0.22-0.06-0.4-0.1-0.71-0.1c-0.66,0-1.44,0.46-1.97,1.78v5h-1.33V234.2z"/>
			<path d="M70.71,234.2h1.09l0.11,0.9h0.05c0.71-0.59,1.59-1.09,2.48-1.09c2,0,3.09,1.55,3.09,3.97c0,2.64-1.6,4.2-3.38,4.2
				c-0.7,0-1.44-0.34-2.15-0.9l0.03,1.36v2.63h-1.33V234.2z M76.16,237.98c0-1.71-0.59-2.85-2.05-2.85c-0.66,0-1.31,0.35-2.07,1.06
				v4.07c0.71,0.59,1.38,0.8,1.89,0.8C75.22,241.06,76.16,239.91,76.16,237.98z"/>
			<path d="M79.6,234.2h1.09l0.11,1.41h0.05c0.54-0.98,1.35-1.6,2.21-1.6c0.35,0,0.59,0.05,0.83,0.16l-0.29,1.14
				c-0.22-0.06-0.4-0.1-0.71-0.1c-0.66,0-1.44,0.46-1.97,1.78v5H79.6V234.2z"/>
			<path d="M84.44,238.1c0-2.53,1.71-4.08,3.49-4.08c1.99,0,3.12,1.41,3.12,3.65c0,0.29-0.02,0.53-0.06,0.79h-5.24
				c0.11,1.6,1.09,2.66,2.56,2.66c0.75,0,1.41-0.21,1.95-0.58l0.46,0.85c-0.67,0.48-1.51,0.8-2.58,0.8
				C86.08,242.18,84.44,240.68,84.44,238.1z M89.87,237.42c0-1.54-0.72-2.35-1.91-2.35c-1.09,0-2.05,0.86-2.21,2.35H89.87z"/>
			<path d="M92.1,241.06l0.61-0.77c0.67,0.56,1.38,0.85,2.34,0.85c1.03,0,1.52-0.53,1.52-1.2c0-0.8-0.86-1.14-1.75-1.46
				c-1.17-0.42-2.29-0.98-2.29-2.26c0-1.25,0.99-2.21,2.69-2.21c0.98,0,1.81,0.37,2.42,0.88l-0.61,0.77
				c-0.54-0.4-1.11-0.62-1.79-0.62c-0.99,0-1.43,0.54-1.43,1.12c0,0.71,0.67,0.99,1.65,1.33c1.22,0.43,2.39,0.96,2.39,2.37
				c0,1.27-1.01,2.32-2.85,2.32C93.86,242.18,92.82,241.77,92.1,241.06z"/>
			<path d="M98.81,241.06l0.61-0.77c0.67,0.56,1.38,0.85,2.34,0.85c1.03,0,1.52-0.53,1.52-1.2c0-0.8-0.86-1.14-1.75-1.46
				c-1.17-0.42-2.29-0.98-2.29-2.26c0-1.25,0.99-2.21,2.69-2.21c0.98,0,1.81,0.37,2.42,0.88l-0.61,0.77
				c-0.54-0.4-1.11-0.62-1.79-0.62c-0.99,0-1.43,0.54-1.43,1.12c0,0.71,0.67,0.99,1.65,1.33c1.22,0.43,2.39,0.96,2.39,2.37
				c0,1.27-1.01,2.32-2.85,2.32C100.57,242.18,99.53,241.77,98.81,241.06z"/>
			<path d="M106.28,239.14v-4.93h1.33v4.76c0,1.44,0.45,2.07,1.47,2.07c0.79,0,1.35-0.4,2.07-1.31v-5.51h1.33v7.79h-1.09l-0.11-1.22
				h-0.05c-0.72,0.85-1.49,1.41-2.56,1.41C107.01,242.18,106.28,241.13,106.28,239.14z"/>
			<path d="M115.1,234.2h1.09l0.11,1.41h0.05c0.54-0.98,1.35-1.6,2.21-1.6c0.35,0,0.59,0.05,0.83,0.16l-0.29,1.14
				c-0.22-0.06-0.4-0.1-0.71-0.1c-0.66,0-1.44,0.46-1.97,1.78v5h-1.33V234.2z"/>
			<path d="M119.94,238.1c0-2.53,1.71-4.08,3.49-4.08c1.99,0,3.12,1.41,3.12,3.65c0,0.29-0.02,0.53-0.06,0.79h-5.24
				c0.11,1.6,1.09,2.66,2.56,2.66c0.75,0,1.41-0.21,1.95-0.58l0.46,0.85c-0.67,0.48-1.51,0.8-2.58,0.8
				C121.58,242.18,119.94,240.68,119.94,238.1z M125.37,237.42c0-1.54-0.72-2.35-1.91-2.35c-1.09,0-2.05,0.86-2.21,2.35H125.37z"/>
		</g>
		<g>
			<path fill="#00984A" d="M184.24,202.16l0.75-0.88c0.77,0.79,1.84,1.27,2.95,1.27c1.38,0,2.2-0.69,2.2-1.7
				c0-1.07-0.77-1.41-1.75-1.84l-1.52-0.67c-0.98-0.42-2.12-1.15-2.12-2.71c0-1.6,1.39-2.79,3.3-2.79c1.28,0,2.37,0.53,3.11,1.27
				l-0.74,0.9c-0.64-0.61-1.46-0.98-2.37-0.98c-1.17,0-1.94,0.59-1.94,1.52c0,1.01,0.91,1.39,1.73,1.73l1.51,0.66
				c1.22,0.51,2.16,1.25,2.16,2.8c0,1.67-1.38,3-3.59,3C186.42,203.73,185.15,203.14,184.24,202.16z"/>
			<path fill="#00984A" d="M193.43,195.76h1.09l0.11,1.12h0.05c0.69-0.74,1.49-1.31,2.42-1.31c1.2,0,1.84,0.56,2.16,1.47
				c0.8-0.87,1.62-1.47,2.56-1.47c1.6,0,2.37,1.06,2.37,3.04v4.93h-1.33v-4.76c0-1.46-0.46-2.07-1.44-2.07
				c-0.61,0-1.23,0.38-1.96,1.19v5.64h-1.33v-4.76c0-1.46-0.45-2.07-1.44-2.07c-0.58,0-1.22,0.38-1.94,1.19v5.64h-1.33V195.76z"/>
			<path fill="#00984A" d="M206.23,201.52c0-1.73,1.44-2.56,4.77-2.93c-0.02-0.98-0.34-1.92-1.6-1.92c-0.9,0-1.71,0.4-2.32,0.8
				l-0.51-0.9c0.72-0.48,1.81-1.01,3.06-1.01c1.89,0,2.71,1.27,2.71,3.19v4.79h-1.09l-0.13-0.93h-0.05
				c-0.74,0.62-1.59,1.12-2.56,1.12C207.21,203.73,206.23,202.93,206.23,201.52z M211.01,201.65v-2.12c-2.63,0.3-3.48,0.9-3.48,1.91
				c0,0.87,0.59,1.2,1.35,1.2S210.25,202.31,211.01,201.65z"/>
			<path fill="#00984A" d="M214.79,201.97v-9.84h1.33v9.93c0,0.42,0.18,0.56,0.38,0.56c0.08,0,0.14,0,0.27-0.03l0.18,0.99
				c-0.19,0.1-0.43,0.14-0.77,0.14C215.19,203.73,214.79,203.09,214.79,201.97z"/>
			<path fill="#00984A" d="M218.87,201.97v-9.84h1.33v9.93c0,0.42,0.18,0.56,0.38,0.56c0.08,0,0.14,0,0.27-0.03l0.18,0.99
				c-0.19,0.1-0.43,0.14-0.77,0.14C219.27,203.73,218.87,203.09,218.87,201.97z"/>
			<path fill="#00984A" d="M222.38,199.65c0-2.53,1.71-4.08,3.49-4.08c1.99,0,3.12,1.41,3.12,3.65c0,0.29-0.02,0.53-0.06,0.79h-5.24
				c0.11,1.6,1.09,2.66,2.56,2.66c0.75,0,1.41-0.21,1.96-0.58l0.46,0.85c-0.67,0.48-1.51,0.8-2.58,0.8
				C224.01,203.73,222.38,202.23,222.38,199.65z M227.81,198.98c0-1.54-0.72-2.36-1.91-2.36c-1.09,0-2.05,0.87-2.21,2.36H227.81z"/>
			<path fill="#00984A" d="M230.9,195.76h1.09l0.11,1.41h0.05c0.54-0.98,1.35-1.6,2.21-1.6c0.35,0,0.59,0.05,0.83,0.16l-0.29,1.14
				c-0.22-0.06-0.4-0.1-0.71-0.1c-0.66,0-1.44,0.46-1.97,1.78v5h-1.33V195.76z"/>
			<path d="M238.56,195.76h1.38l1.46,4.41c0.24,0.77,0.48,1.55,0.72,2.31h0.06c0.22-0.75,0.48-1.54,0.72-2.31l1.46-4.41h1.31
				l-2.76,7.79h-1.55L238.56,195.76z"/>
			<path d="M246.54,199.67c0-2.61,1.7-4.1,3.6-4.1s3.62,1.49,3.62,4.1c0,2.58-1.71,4.07-3.62,4.07S246.54,202.24,246.54,199.67z
				 M252.39,199.67c0-1.79-0.9-3-2.24-3c-1.33,0-2.23,1.2-2.23,3c0,1.78,0.9,2.96,2.23,2.96
				C251.49,202.63,252.39,201.44,252.39,199.67z"/>
			<path d="M255.8,201.97v-9.84h1.33v9.93c0,0.42,0.18,0.56,0.38,0.56c0.08,0,0.14,0,0.27-0.03l0.18,0.99
				c-0.19,0.1-0.43,0.14-0.77,0.14C256.2,203.73,255.8,203.09,255.8,201.97z"/>
			<path d="M259.77,200.69v-4.93h1.33v4.76c0,1.44,0.45,2.07,1.47,2.07c0.78,0,1.35-0.4,2.07-1.31v-5.51h1.33v7.79h-1.09l-0.11-1.22
				h-0.05c-0.72,0.85-1.49,1.41-2.56,1.41C260.51,203.73,259.77,202.68,259.77,200.69z"/>
			<path d="M268.6,195.76h1.09l0.11,1.12h0.05c0.69-0.74,1.49-1.31,2.42-1.31c1.2,0,1.84,0.56,2.16,1.47
				c0.8-0.87,1.62-1.47,2.56-1.47c1.6,0,2.37,1.06,2.37,3.04v4.93h-1.33v-4.76c0-1.46-0.46-2.07-1.44-2.07
				c-0.61,0-1.23,0.38-1.96,1.19v5.64h-1.33v-4.76c0-1.46-0.45-2.07-1.44-2.07c-0.58,0-1.22,0.38-1.94,1.19v5.64h-1.33V195.76z"/>
			<path d="M281.3,199.65c0-2.53,1.71-4.08,3.49-4.08c1.99,0,3.12,1.41,3.12,3.65c0,0.29-0.02,0.53-0.06,0.79h-5.24
				c0.11,1.6,1.09,2.66,2.56,2.66c0.75,0,1.41-0.21,1.96-0.58l0.46,0.85c-0.67,0.48-1.51,0.8-2.58,0.8
				C282.93,203.73,281.3,202.23,281.3,199.65z M286.73,198.98c0-1.54-0.72-2.36-1.91-2.36c-1.09,0-2.05,0.87-2.21,2.36H286.73z"/>
			<path fill="#00984A" d="M187.71,212.26h1.68l1.99,5.62c0.26,0.74,0.48,1.41,0.71,2.2h0.06c0.24-0.79,0.43-1.46,0.69-2.2
				l1.99-5.62h1.68v10.51h-1.27v-5.8c0-0.93,0.11-2.23,0.19-3.14h-0.06l-0.82,2.45l-1.97,5.43h-0.98l-1.96-5.43l-0.83-2.45h-0.06
				c0.08,0.91,0.19,2.21,0.19,3.14v5.8h-1.23V212.26z"/>
			<path fill="#00984A" d="M198.67,218.89c0-2.61,1.7-4.1,3.6-4.1s3.62,1.49,3.62,4.1c0,2.58-1.71,4.07-3.62,4.07
				S198.67,221.47,198.67,218.89z M204.52,218.89c0-1.79-0.9-3-2.24-3c-1.33,0-2.23,1.2-2.23,3c0,1.78,0.9,2.96,2.23,2.96
				C203.62,221.85,204.52,220.67,204.52,218.89z"/>
			<path fill="#00984A" d="M207.93,214.98h1.09l0.11,1.41h0.05c0.54-0.98,1.35-1.6,2.21-1.6c0.35,0,0.59,0.05,0.83,0.16l-0.29,1.14
				c-0.22-0.06-0.4-0.1-0.71-0.1c-0.66,0-1.44,0.46-1.97,1.78v5h-1.33V214.98z"/>
			<path fill="#00984A" d="M212.77,218.87c0-2.53,1.71-4.08,3.49-4.08c1.99,0,3.12,1.41,3.12,3.65c0,0.29-0.02,0.53-0.06,0.79h-5.24
				c0.11,1.6,1.09,2.66,2.56,2.66c0.75,0,1.41-0.21,1.96-0.58l0.46,0.85c-0.67,0.48-1.51,0.8-2.58,0.8
				C214.4,222.96,212.77,221.45,212.77,218.87z M218.2,218.2c0-1.54-0.72-2.35-1.91-2.35c-1.09,0-2.05,0.86-2.21,2.35H218.2z"/>
			<path d="M223.92,218.89c0-2.61,1.75-4.1,3.75-4.1c1.03,0,1.73,0.4,2.27,0.91l-0.66,0.83c-0.43-0.4-0.93-0.64-1.55-0.64
				c-1.41,0-2.43,1.2-2.43,3c0,1.78,0.96,2.96,2.39,2.96c0.72,0,1.36-0.32,1.83-0.74l0.58,0.85c-0.71,0.64-1.59,0.99-2.52,0.99
				C225.5,222.96,223.92,221.47,223.92,218.89z"/>
			<path d="M230.89,218.89c0-2.61,1.7-4.1,3.6-4.1s3.62,1.49,3.62,4.1c0,2.58-1.71,4.07-3.62,4.07S230.89,221.47,230.89,218.89z
				 M236.73,218.89c0-1.79-0.9-3-2.24-3c-1.33,0-2.23,1.2-2.23,3c0,1.78,0.9,2.96,2.23,2.96
				C235.84,221.85,236.73,220.67,236.73,218.89z"/>
			<path d="M240.15,221.2v-9.84h1.33v9.93c0,0.42,0.18,0.56,0.38,0.56c0.08,0,0.14,0,0.27-0.03l0.18,0.99
				c-0.19,0.1-0.43,0.14-0.77,0.14C240.55,222.96,240.15,222.32,240.15,221.2z"/>
			<path d="M244.23,221.2v-9.84h1.33v9.93c0,0.42,0.18,0.56,0.38,0.56c0.08,0,0.14,0,0.27-0.03l0.18,0.99
				c-0.19,0.1-0.43,0.14-0.77,0.14C244.63,222.96,244.23,222.32,244.23,221.2z"/>
			<path d="M248.11,212.51c0-0.51,0.37-0.87,0.88-0.87s0.88,0.35,0.88,0.87c0,0.53-0.37,0.87-0.88,0.87S248.11,213.04,248.11,212.51
				z M248.32,214.98h1.33v7.79h-1.33V214.98z"/>
			<path d="M251.41,221.84l0.61-0.77c0.67,0.56,1.38,0.85,2.34,0.85c1.03,0,1.52-0.53,1.52-1.2c0-0.8-0.87-1.14-1.75-1.46
				c-1.17-0.42-2.29-0.98-2.29-2.26c0-1.25,0.99-2.21,2.69-2.21c0.98,0,1.81,0.37,2.42,0.88l-0.61,0.77
				c-0.54-0.4-1.11-0.62-1.79-0.62c-0.99,0-1.43,0.54-1.43,1.12c0,0.71,0.67,0.99,1.65,1.33c1.22,0.43,2.39,0.96,2.39,2.37
				c0,1.27-1.01,2.32-2.85,2.32C253.17,222.96,252.13,222.54,251.41,221.84z"/>
			<path d="M258.78,212.51c0-0.51,0.37-0.87,0.88-0.87s0.88,0.35,0.88,0.87c0,0.53-0.37,0.87-0.88,0.87S258.78,213.04,258.78,212.51
				z M258.98,214.98h1.33v7.79h-1.33V214.98z"/>
			<path d="M262.37,218.89c0-2.61,1.7-4.1,3.6-4.1s3.62,1.49,3.62,4.1c0,2.58-1.71,4.07-3.62,4.07S262.37,221.47,262.37,218.89z
				 M268.21,218.89c0-1.79-0.9-3-2.24-3c-1.33,0-2.23,1.2-2.23,3c0,1.78,0.9,2.96,2.23,2.96
				C267.32,221.85,268.21,220.67,268.21,218.89z"/>
			<path d="M271.62,214.98h1.09l0.11,1.12h0.05c0.74-0.74,1.54-1.31,2.61-1.31c1.65,0,2.39,1.06,2.39,3.04v4.93h-1.33v-4.76
				c0-1.46-0.45-2.07-1.47-2.07c-0.79,0-1.35,0.4-2.12,1.19v5.64h-1.33V214.98z"/>
			<path d="M279.52,221.84l0.61-0.77c0.67,0.56,1.38,0.85,2.34,0.85c1.03,0,1.52-0.53,1.52-1.2c0-0.8-0.87-1.14-1.75-1.46
				c-1.17-0.42-2.29-0.98-2.29-2.26c0-1.25,0.99-2.21,2.69-2.21c0.98,0,1.81,0.37,2.42,0.88l-0.61,0.77
				c-0.54-0.4-1.11-0.62-1.79-0.62c-0.99,0-1.43,0.54-1.43,1.12c0,0.71,0.67,0.99,1.65,1.33c1.22,0.43,2.39,0.96,2.39,2.37
				c0,1.27-1.01,2.32-2.85,2.32C281.28,222.96,280.24,222.54,279.52,221.84z"/>
			<path fill="#00984A" d="M185.57,231.48h3.12c2.13,0,3.62,0.72,3.62,2.56c0,1.04-0.56,1.97-1.54,2.29v0.06
				c1.25,0.24,2.13,1.07,2.13,2.52c0,2.07-1.63,3.08-3.97,3.08h-3.36V231.48z M188.47,235.95c1.78,0,2.52-0.66,2.52-1.73
				c0-1.22-0.83-1.67-2.47-1.67h-1.6v3.4H188.47z M188.75,240.92c1.79,0,2.84-0.64,2.84-2.05c0-1.3-1.01-1.89-2.84-1.89h-1.83v3.94
				H188.75z"/>
			<path fill="#00984A" d="M194.66,231.74c0-0.51,0.37-0.87,0.88-0.87s0.88,0.35,0.88,0.87c0,0.53-0.37,0.87-0.88,0.87
				S194.66,232.27,194.66,231.74z M194.87,234.2h1.33v7.79h-1.33V234.2z"/>
			<path fill="#00984A" d="M198.23,243.48c0-0.66,0.43-1.28,1.14-1.76v-0.06c-0.38-0.24-0.69-0.66-0.69-1.27
				c0-0.66,0.45-1.17,0.85-1.44v-0.06c-0.51-0.42-1.01-1.17-1.01-2.1c0-1.7,1.35-2.77,2.93-2.77c0.43,0,0.82,0.08,1.11,0.19h2.71
				v1.03h-1.59c0.37,0.35,0.62,0.93,0.62,1.59c0,1.67-1.27,2.71-2.85,2.71c-0.38,0-0.8-0.1-1.15-0.27c-0.29,0.24-0.5,0.5-0.5,0.93
				c0,0.48,0.32,0.83,1.36,0.83h1.51c1.81,0,2.72,0.58,2.72,1.86c0,1.46-1.52,2.71-3.94,2.71
				C199.54,245.58,198.23,244.83,198.23,243.48z M204.09,243.08c0-0.72-0.54-0.96-1.57-0.96h-1.33c-0.3,0-0.67-0.03-1.01-0.13
				c-0.56,0.4-0.8,0.87-0.8,1.31c0,0.83,0.85,1.35,2.26,1.35C203.12,244.65,204.09,243.88,204.09,243.08z M203.1,236.78
				c0-1.12-0.74-1.81-1.65-1.81s-1.65,0.67-1.65,1.81s0.75,1.84,1.65,1.84S203.1,237.92,203.1,236.78z"/>
			<path fill="#00984A" d="M206.32,243.48c0-0.66,0.43-1.28,1.14-1.76v-0.06c-0.38-0.24-0.69-0.66-0.69-1.27
				c0-0.66,0.45-1.17,0.85-1.44v-0.06c-0.51-0.42-1.01-1.17-1.01-2.1c0-1.7,1.35-2.77,2.93-2.77c0.43,0,0.82,0.08,1.11,0.19h2.71
				v1.03h-1.59c0.37,0.35,0.62,0.93,0.62,1.59c0,1.67-1.27,2.71-2.85,2.71c-0.38,0-0.8-0.1-1.15-0.27c-0.29,0.24-0.5,0.5-0.5,0.93
				c0,0.48,0.32,0.83,1.36,0.83h1.51c1.81,0,2.72,0.58,2.72,1.86c0,1.46-1.52,2.71-3.94,2.71
				C207.63,245.58,206.32,244.83,206.32,243.48z M212.18,243.08c0-0.72-0.54-0.96-1.57-0.96h-1.33c-0.3,0-0.67-0.03-1.01-0.13
				c-0.56,0.4-0.8,0.87-0.8,1.31c0,0.83,0.85,1.35,2.26,1.35C211.21,244.65,212.18,243.88,212.18,243.08z M211.19,236.78
				c0-1.12-0.74-1.81-1.65-1.81s-1.65,0.67-1.65,1.81s0.75,1.84,1.65,1.84S211.19,237.92,211.19,236.78z"/>
			<path fill="#00984A" d="M214.2,238.1c0-2.53,1.71-4.08,3.49-4.08c1.99,0,3.12,1.41,3.12,3.65c0,0.29-0.02,0.53-0.06,0.79h-5.24
				c0.11,1.6,1.09,2.66,2.56,2.66c0.75,0,1.41-0.21,1.96-0.58l0.46,0.85c-0.67,0.48-1.51,0.8-2.58,0.8
				C215.84,242.18,214.2,240.68,214.2,238.1z M219.63,237.42c0-1.54-0.72-2.35-1.91-2.35c-1.09,0-2.05,0.86-2.21,2.35H219.63z"/>
			<path fill="#00984A" d="M222.72,234.2h1.09l0.11,1.41h0.05c0.54-0.98,1.35-1.6,2.21-1.6c0.35,0,0.59,0.05,0.83,0.16l-0.29,1.14
				c-0.22-0.06-0.4-0.1-0.71-0.1c-0.66,0-1.44,0.46-1.97,1.78v5h-1.33V234.2z"/>
			<path d="M231.5,234.2h1.09l0.11,0.9h0.05c0.71-0.59,1.59-1.09,2.48-1.09c2,0,3.09,1.55,3.09,3.97c0,2.64-1.6,4.2-3.38,4.2
				c-0.71,0-1.44-0.34-2.15-0.9l0.03,1.36v2.63h-1.33V234.2z M236.95,237.98c0-1.71-0.59-2.85-2.05-2.85
				c-0.66,0-1.31,0.35-2.07,1.06v4.07c0.71,0.59,1.38,0.8,1.89,0.8C236,241.06,236.95,239.91,236.95,237.98z"/>
			<path d="M240.39,234.2h1.09l0.11,1.41h0.05c0.54-0.98,1.35-1.6,2.21-1.6c0.35,0,0.59,0.05,0.83,0.16l-0.29,1.14
				c-0.22-0.06-0.4-0.1-0.71-0.1c-0.66,0-1.44,0.46-1.97,1.78v5h-1.33V234.2z"/>
			<path d="M245.23,238.1c0-2.53,1.71-4.08,3.49-4.08c1.99,0,3.12,1.41,3.12,3.65c0,0.29-0.02,0.53-0.06,0.79h-5.24
				c0.11,1.6,1.09,2.66,2.56,2.66c0.75,0,1.41-0.21,1.96-0.58l0.46,0.85c-0.67,0.48-1.51,0.8-2.58,0.8
				C246.87,242.18,245.23,240.68,245.23,238.1z M250.66,237.42c0-1.54-0.72-2.35-1.91-2.35c-1.09,0-2.05,0.86-2.21,2.35H250.66z"/>
			<path d="M252.89,241.06l0.61-0.77c0.67,0.56,1.38,0.85,2.34,0.85c1.03,0,1.52-0.53,1.52-1.2c0-0.8-0.87-1.14-1.75-1.46
				c-1.17-0.42-2.29-0.98-2.29-2.26c0-1.25,0.99-2.21,2.69-2.21c0.98,0,1.81,0.37,2.42,0.88l-0.61,0.77
				c-0.54-0.4-1.11-0.62-1.79-0.62c-0.99,0-1.43,0.54-1.43,1.12c0,0.71,0.67,0.99,1.65,1.33c1.22,0.43,2.39,0.96,2.39,2.37
				c0,1.27-1.01,2.32-2.85,2.32C254.65,242.18,253.61,241.77,252.89,241.06z"/>
			<path d="M259.6,241.06l0.61-0.77c0.67,0.56,1.38,0.85,2.34,0.85c1.03,0,1.52-0.53,1.52-1.2c0-0.8-0.87-1.14-1.75-1.46
				c-1.17-0.42-2.29-0.98-2.29-2.26c0-1.25,0.99-2.21,2.69-2.21c0.98,0,1.81,0.37,2.42,0.88l-0.61,0.77
				c-0.54-0.4-1.11-0.62-1.79-0.62c-0.99,0-1.43,0.54-1.43,1.12c0,0.71,0.67,0.99,1.65,1.33c1.22,0.43,2.39,0.96,2.39,2.37
				c0,1.27-1.01,2.32-2.85,2.32C261.36,242.18,260.32,241.77,259.6,241.06z"/>
			<path d="M267.07,239.14v-4.93h1.33v4.76c0,1.44,0.45,2.07,1.47,2.07c0.78,0,1.35-0.4,2.07-1.31v-5.51h1.33v7.79h-1.09l-0.11-1.22
				h-0.05c-0.72,0.85-1.49,1.41-2.56,1.41C267.8,242.18,267.07,241.13,267.07,239.14z"/>
			<path d="M275.89,234.2h1.09l0.11,1.41h0.05c0.54-0.98,1.35-1.6,2.21-1.6c0.35,0,0.59,0.05,0.83,0.16l-0.29,1.14
				c-0.22-0.06-0.4-0.1-0.71-0.1c-0.66,0-1.44,0.46-1.97,1.78v5h-1.33V234.2z"/>
			<path d="M280.73,238.1c0-2.53,1.71-4.08,3.49-4.08c1.99,0,3.12,1.41,3.12,3.65c0,0.29-0.02,0.53-0.06,0.79h-5.24
				c0.11,1.6,1.09,2.66,2.56,2.66c0.75,0,1.41-0.21,1.96-0.58l0.46,0.85c-0.67,0.48-1.51,0.8-2.58,0.8
				C282.37,242.18,280.73,240.68,280.73,238.1z M286.16,237.42c0-1.54-0.72-2.35-1.91-2.35c-1.09,0-2.05,0.86-2.21,2.35H286.16z"/>
		</g>
	</g>
	<g>
	</g>
	<g>
	</g>
	<g>
	</g>
	<g>
	</g>
	<g>
	</g>
	<g>
	</g>
</g>
</svg>
