<?xml version="1.0" encoding="utf-8"?>
<!-- Generator: Adobe Illustrator 28.7.4, SVG Export Plug-In . SVG Version: 9.03 Build 55973)  -->
<svg xmlns:xlink="http://www.w3.org/1999/xlink" width="301.553263397216" height="266.315396270753" version="1.1" id="Layer_1" xmlns="http://www.w3.org/2000/svg"  x="0px" y="0px"
	 viewBox="0 0 301.55 266.32" enable-background="new 0 0 301.55 266.32" xml:space="preserve">
<rect fill="#FFFFFF" width="301.55" height="266.32"/>
<g>
	<g>
		<defs>
			<rect id="SVGID_1_" x="34.3" y="5" width="253.37" height="229.7"/>
		</defs>
		<clipPath id="SVGID_00000047047100586088076710000014834328837403456665_">
			<use xlink:href="#SVGID_1_"  overflow="visible"/>
		</clipPath>
		<path clip-path="url(#SVGID_00000047047100586088076710000014834328837403456665_)" fill="#FFFFFF" d="M95.99,103.49
			c-9.02,14.76-10.93,18.04-16.4,30.06c-5.47,12.02-9.02,18.58-11.48,24.32c-2.46,5.74-6.29,10.93,4.1,12.84
			c10.38,1.92,11.75,4.38,25.69,10.39c13.94,6.01,59.58,20.49,87.18,9.02c27.6-11.48,41-18.59,49.19-18.31
			c8.2,0.27,8.74-3.55,5.46-10.11c-3.28-6.56-10.93-41.27-33.61-62.04s-57.39-31.97-68.6-33.34
			C126.33,64.95,101.73,87.91,95.99,103.49"/>
		
			<path clip-path="url(#SVGID_00000047047100586088076710000014834328837403456665_)" fill="none" stroke="#000000" stroke-width="0.5" stroke-linecap="round" stroke-linejoin="round" stroke-miterlimit="10" d="
			M95.99,103.49c-9.02,14.76-10.93,18.04-16.4,30.06c-5.47,12.02-9.02,18.58-11.48,24.32c-2.46,5.74-6.29,10.93,4.1,12.84
			c10.38,1.92,11.75,4.38,25.69,10.39c13.94,6.01,59.58,20.49,87.18,9.02c27.6-11.48,41-18.59,49.19-18.31
			c8.2,0.27,8.74-3.55,5.46-10.11c-3.28-6.56-10.93-41.27-33.61-62.04s-57.39-31.97-68.6-33.34
			C126.33,64.95,101.73,87.91,95.99,103.49z"/>
		
			<path clip-path="url(#SVGID_00000047047100586088076710000014834328837403456665_)" fill="none" stroke="#000000" stroke-width="0.35" stroke-linecap="round" stroke-linejoin="round" stroke-miterlimit="10" d="
			M135.62,103.49c-7.11,7.11-15.3,23.23-19.13,35.25"/>
		
			<path clip-path="url(#SVGID_00000047047100586088076710000014834328837403456665_)" fill="none" stroke="#000000" stroke-width="0.25" stroke-linecap="round" stroke-linejoin="round" stroke-miterlimit="10" d="
			M139.99,106.22c-3.01,5.46-7.93,23.77-7.93,30.06"/>
		
			<path clip-path="url(#SVGID_00000047047100586088076710000014834328837403456665_)" fill="none" stroke="#000000" stroke-width="0.25" stroke-linecap="round" stroke-linejoin="round" stroke-miterlimit="10" d="
			M159.67,87.64c8.2,8.2,14.21,31.98,18.04,53.84"/>
		
			<path clip-path="url(#SVGID_00000047047100586088076710000014834328837403456665_)" fill="none" stroke="#000000" stroke-width="0.35" stroke-linecap="round" stroke-linejoin="round" stroke-miterlimit="10" d="
			M152.56,95.01c3.28,4.65,3.28,26.24,0.55,41.54"/>
		
			<path clip-path="url(#SVGID_00000047047100586088076710000014834328837403456665_)" fill="none" stroke="#000000" stroke-width="0.35" stroke-linecap="round" stroke-linejoin="round" stroke-miterlimit="10" d="
			M162.95,85.45c7.11,2.46,15.03,11.21,17.22,15.03"/>
		<path clip-path="url(#SVGID_00000047047100586088076710000014834328837403456665_)" fill="#D2AB94" d="M287.22,65.57
			c-6.56,2.26-24.59,9.22-36.28,15.17c-11.68,5.94-27.87,13.12-44.82,18.92C196.29,90.23,181.8,86,164.18,79.3
			c2.87,4.78-3.69,8.2-5.47,8.06c-1.77-0.14-9.56-0.96-11.34-0.96c-1.77,0-5.47,0.41-12.16-0.82c10.25,2.87,15.44,9.84,17.63,13.94
			c2.19,4.1,0.96,7.79-0.55,9.15c-1.5,1.37-4.78,4.65-9.02,0.96c-4.24-3.69-9.7-8.75-13.12-9.7c-3.42-0.96-7.79-1.78-13.66-5.19
			c0,2.19,0.14,5.19,0.96,6.29c7.24,8.75,4.92,16.53,1.91,19.68c-3.01,3.14-6.29,1.64-7.93-0.96c-1.64-2.6-3.42-5.33-5.88-9.15
			c-6.56,2.73-8.47-1.64-9.29-4.92c-0.82-3.28-2.19-4.92-3.28-8.2c-1.09-3.28-0.27-3.55,1.09-6.56c1.37-3,2.73-4.65,7.65-10.38
			c0.55-2.19,1.37-3.55,3.01-6.83c6.01-21.45,31.63-33.75,55.2-31.29c8.81,0.2,11.89,1.64,14.76,3.07
			c2.87,1.43,7.79,3.69,10.66,5.12c2.87,1.43,9.84,4.1,12.71,4.1c2.87,0,8.4-0.2,14.55-4.1s35.05-24.39,45.09-31.56"/>
		
			<path clip-path="url(#SVGID_00000047047100586088076710000014834328837403456665_)" fill="none" stroke="#000000" stroke-width="0.5" stroke-linecap="round" stroke-linejoin="round" stroke-miterlimit="10" d="
			M287.22,65.57c-6.56,2.26-24.59,9.22-36.28,15.17c-11.68,5.94-27.87,13.12-44.82,18.92C196.29,90.23,181.8,86,164.18,79.3
			c2.87,4.78-3.69,8.2-5.47,8.06c-1.77-0.14-9.56-0.96-11.34-0.96c-1.77,0-5.47,0.41-12.16-0.82c10.25,2.87,15.44,9.84,17.63,13.94
			c2.19,4.1,0.96,7.79-0.55,9.15c-1.5,1.37-4.78,4.65-9.02,0.96c-4.24-3.69-9.7-8.75-13.12-9.7c-3.42-0.96-7.79-1.78-13.66-5.19
			c0,2.19,0.14,5.19,0.96,6.29c7.24,8.75,4.92,16.53,1.91,19.68c-3.01,3.14-6.29,1.64-7.93-0.96c-1.64-2.6-3.42-5.33-5.88-9.15
			c-6.56,2.73-8.47-1.64-9.29-4.92c-0.82-3.28-2.19-4.92-3.28-8.2c-1.09-3.28-0.27-3.55,1.09-6.56c1.37-3,2.73-4.65,7.65-10.38
			c0.55-2.19,1.37-3.55,3.01-6.83c6.01-21.45,31.63-33.75,55.2-31.29c8.81,0.2,11.89,1.64,14.76,3.07
			c2.87,1.43,7.79,3.69,10.66,5.12c2.87,1.43,9.84,4.1,12.71,4.1c2.87,0,8.4-0.2,14.55-4.1s35.05-24.39,45.09-31.56"/>
		
			<path clip-path="url(#SVGID_00000047047100586088076710000014834328837403456665_)" fill="none" stroke="#000000" stroke-width="0.5" stroke-linecap="round" stroke-linejoin="round" stroke-miterlimit="10" d="
			M168.96,46.5c-2.25,0-7.17,0.61-9.22,2.05c-3.89-0.2-8.81,0-12.3,0.82"/>
		
			<path clip-path="url(#SVGID_00000047047100586088076710000014834328837403456665_)" fill="none" stroke="#000000" stroke-width="0.5" stroke-linecap="round" stroke-linejoin="round" stroke-miterlimit="10" d="
			M164.18,79.3c-2.39-3.49-7.72-10.86-31.29-10.86"/>
		
			<path clip-path="url(#SVGID_00000047047100586088076710000014834328837403456665_)" fill="none" stroke="#000000" stroke-width="0.5" stroke-linecap="round" stroke-linejoin="round" stroke-miterlimit="10" d="
			M135.21,85.58c-6.22-1.37-13.19-3.83-16.06-4.24c-2.87-0.41-9.22-1.84-8.81-9.22"/>
		
			<path clip-path="url(#SVGID_00000047047100586088076710000014834328837403456665_)" fill="none" stroke="#000000" stroke-width="0.5" stroke-linecap="round" stroke-linejoin="round" stroke-miterlimit="10" d="
			M116.49,94.74c-4.3-2.53-8.81-7.24-9.84-9.91c-1.03-2.66-2.19-7.52-1.91-11.14"/>
		
			<path clip-path="url(#SVGID_00000047047100586088076710000014834328837403456665_)" fill="none" stroke="#000000" stroke-width="0.5" stroke-linecap="round" stroke-linejoin="round" stroke-miterlimit="10" d="
			M101.73,80.53c0.2,5.33-0.41,14.96,0.82,19.27c1.23,4.3,1.71,9.29,3,10.8"/>
		
			<path clip-path="url(#SVGID_00000047047100586088076710000014834328837403456665_)" fill="none" stroke="#000000" stroke-width="0.35" stroke-linecap="round" stroke-linejoin="round" stroke-miterlimit="10" d="
			M190.68,89.34c4.51,2.05,9.02,1.64,12.5-5.12"/>
		
			<path clip-path="url(#SVGID_00000047047100586088076710000014834328837403456665_)" fill="none" stroke="#000000" stroke-width="0.35" stroke-linecap="round" stroke-linejoin="round" stroke-miterlimit="10" d="
			M184.95,52.65c6.76,2.66,12.09,5.53,15.99,15.17"/>
		
			<path clip-path="url(#SVGID_00000047047100586088076710000014834328837403456665_)" fill="none" stroke="#000000" stroke-width="0.35" stroke-linecap="round" stroke-linejoin="round" stroke-miterlimit="10" d="
			M204.01,59.42c1.43-2.46,7.79-5.74,12.09-3.49"/>
		
			<path clip-path="url(#SVGID_00000047047100586088076710000014834328837403456665_)" fill="none" stroke="#000000" stroke-width="0.35" stroke-linecap="round" stroke-linejoin="round" stroke-miterlimit="10" d="
			M164.04,73.97c-1.64,0.41-9.02-1.03-13.32-4.92"/>
		<path clip-path="url(#SVGID_00000047047100586088076710000014834328837403456665_)" fill="#DDC1B0" d="M157.89,78.21
			c2.32,0.27,2.46,6.83,0,7.11c-2.46,0.27-7.52-0.27-7.93-2.32C149.55,80.94,151.47,77.93,157.89,78.21"/>
		
			<path clip-path="url(#SVGID_00000047047100586088076710000014834328837403456665_)" fill="none" stroke="#000000" stroke-width="0.25" stroke-linecap="round" stroke-linejoin="round" stroke-miterlimit="10" d="
			M157.89,78.21c2.32,0.27,2.46,6.83,0,7.11c-2.46,0.27-7.52-0.27-7.93-2.32C149.55,80.94,151.47,77.93,157.89,78.21z"/>
		<path clip-path="url(#SVGID_00000047047100586088076710000014834328837403456665_)" fill="#DDC1B0" d="M143.82,108.81
			c0-1.5,2.46-6.7,3.83-7.79c-3.14-2.05-7.24-2.32-8.06-0.55C138.76,102.26,139.72,106.22,143.82,108.81"/>
		
			<path clip-path="url(#SVGID_00000047047100586088076710000014834328837403456665_)" fill="none" stroke="#000000" stroke-width="0.25" stroke-linecap="round" stroke-linejoin="round" stroke-miterlimit="10" d="
			M143.82,108.81c0-1.5,2.46-6.7,3.83-7.79c-3.14-2.05-7.24-2.32-8.06-0.55C138.76,102.26,139.72,106.22,143.82,108.81z"/>
		<path clip-path="url(#SVGID_00000047047100586088076710000014834328837403456665_)" fill="#DDC1B0" d="M113.21,119.2
			c0-1.37,2.87-4.92,4.1-6.01c-1.78-2.6-4.78-3.42-6.15-2.19C109.79,112.23,110.06,115.78,113.21,119.2"/>
		
			<path clip-path="url(#SVGID_00000047047100586088076710000014834328837403456665_)" fill="none" stroke="#000000" stroke-width="0.25" stroke-linecap="round" stroke-linejoin="round" stroke-miterlimit="10" d="
			M113.21,119.2c0-1.37,2.87-4.92,4.1-6.01c-1.78-2.6-4.78-3.42-6.15-2.19C109.79,112.23,110.06,115.78,113.21,119.2z"/>
		<path clip-path="url(#SVGID_00000047047100586088076710000014834328837403456665_)" fill="#DDC1B0" d="M98.45,107.86
			c0.96-0.41,3.83-0.82,4.24-0.82c-0.82-3.55-2.73-6.29-3.96-6.29C97.49,100.75,97.22,103.76,98.45,107.86"/>
		
			<path clip-path="url(#SVGID_00000047047100586088076710000014834328837403456665_)" fill="none" stroke="#000000" stroke-width="0.25" stroke-linecap="round" stroke-linejoin="round" stroke-miterlimit="10" d="
			M98.45,107.86c0.96-0.41,3.83-0.82,4.24-0.82c-0.82-3.55-2.73-6.29-3.96-6.29C97.49,100.75,97.22,103.76,98.45,107.86z"/>
		
			<path clip-path="url(#SVGID_00000047047100586088076710000014834328837403456665_)" fill="none" stroke="#000000" stroke-width="0.25" stroke-linecap="round" stroke-linejoin="round" stroke-miterlimit="10" d="
			M130.29,98.57c-0.25-2.39,0.85-4.29,1.78-6.29"/>
		
			<path clip-path="url(#SVGID_00000047047100586088076710000014834328837403456665_)" fill="none" stroke="#000000" stroke-width="0.25" stroke-linecap="round" stroke-linejoin="round" stroke-miterlimit="10" d="
			M105.56,107.99c0.56-1.64,1.38-3.84,3.28-4.92"/>
		
			<path clip-path="url(#SVGID_00000047047100586088076710000014834328837403456665_)" fill="none" stroke="#000000" stroke-width="0.25" stroke-linecap="round" stroke-linejoin="round" stroke-miterlimit="10" d="
			M116.9,100.75c-0.39-0.92-1.79-2.08-2.73-2.32"/>
		
			<path clip-path="url(#SVGID_00000047047100586088076710000014834328837403456665_)" fill="none" stroke="#000000" stroke-width="0.25" stroke-linecap="round" stroke-linejoin="round" stroke-miterlimit="10" d="
			M94.08,93.37c0.67-1.68,3.84-1.54,5.33-1.64"/>
		
			<path clip-path="url(#SVGID_00000047047100586088076710000014834328837403456665_)" fill="none" stroke="#000000" stroke-width="0.25" stroke-linecap="round" stroke-linejoin="round" stroke-miterlimit="10" d="
			M138.76,85.31c-0.12-1.1,0.25-2.11,0.41-3.14c0.15-1,0.03-2.04,0.27-3.01"/>
		<path clip-path="url(#SVGID_00000047047100586088076710000014834328837403456665_)" fill="#FFFFFF" d="M121,77.52
			c5.06,2.73,7.24,2.19,9.84-0.55c2.6-2.73,10.93-11.07,14.49-15.3c3.55-4.24,19.54-22.27,20.77-24.87
			c1.23-2.6,5.19-18.45-7.52-21.32c-12.71-2.87-19.54-1.78-22.68-5.6c-3.14-3.83-7.52-6.42-15.71-2.46
			c-8.2,3.96-14.21,8.06-20.22,9.56c-6.01,1.5-7.1,1.64-11.61,8.2c-4.51,6.56-9.57,11.89-8.06,22.41
			c1.5,10.52,10.38,17.22,17.22,22.55C104.33,75.47,110.89,72.74,121,77.52"/>
		
			<path clip-path="url(#SVGID_00000047047100586088076710000014834328837403456665_)" fill="none" stroke="#000000" stroke-width="0.5" stroke-linecap="round" stroke-linejoin="round" stroke-miterlimit="10" d="
			M121,77.52c5.06,2.73,7.24,2.19,9.84-0.55c2.6-2.73,10.93-11.07,14.49-15.3c3.55-4.24,19.54-22.27,20.77-24.87
			c1.23-2.6,5.19-18.45-7.52-21.32c-12.71-2.87-19.54-1.78-22.68-5.6c-3.14-3.83-7.52-6.42-15.71-2.46
			c-8.2,3.96-14.21,8.06-20.22,9.56c-6.01,1.5-7.1,1.64-11.61,8.2c-4.51,6.56-9.57,11.89-8.06,22.41
			c1.5,10.52,10.38,17.22,17.22,22.55C104.33,75.47,110.89,72.74,121,77.52z"/>
		
			<path clip-path="url(#SVGID_00000047047100586088076710000014834328837403456665_)" fill="none" stroke="#000000" stroke-width="0.25" stroke-linecap="round" stroke-linejoin="round" stroke-miterlimit="10" d="
			M131.79,72.33c1.77-3,2.19-5.46-0.55-9.57c-2.73-4.1-10.25-20.22-8.06-26.78"/>
		
			<path clip-path="url(#SVGID_00000047047100586088076710000014834328837403456665_)" fill="none" stroke="#000000" stroke-width="0.35" stroke-linecap="round" stroke-linejoin="round" stroke-miterlimit="10" d="
			M123.05,40.49c1.37-2.6,12.16-8.61,14.21-10.8c2.05-2.19,7.93-5.19,11.21-1.91"/>
		
			<path clip-path="url(#SVGID_00000047047100586088076710000014834328837403456665_)" fill="none" stroke="#000000" stroke-width="0.25" stroke-linecap="round" stroke-linejoin="round" stroke-miterlimit="10" d="
			M147.1,30.11c-1.37,2.19-0.55,16.53,5.33,20.36"/>
		
			<path clip-path="url(#SVGID_00000047047100586088076710000014834328837403456665_)" fill="none" stroke="#000000" stroke-width="0.35" stroke-linecap="round" stroke-linejoin="round" stroke-miterlimit="10" d="
			M147.92,32.98c-0.14-1.64,0.41-6.56,4.24-8.88"/>
		
			<path clip-path="url(#SVGID_00000047047100586088076710000014834328837403456665_)" fill="none" stroke="#000000" stroke-width="0.35" stroke-linecap="round" stroke-linejoin="round" stroke-miterlimit="10" d="
			M163.36,23.82c-3.55,0.96-11.2,0.14-14.89-0.14c-3.69-0.27-1.09-1.91-6.29,0.96c-5.19,2.87-22.14,2.32-22.82-5.47"/>
		
			<path clip-path="url(#SVGID_00000047047100586088076710000014834328837403456665_)" fill="none" stroke="#000000" stroke-width="0.35" stroke-linecap="round" stroke-linejoin="round" stroke-miterlimit="10" d="
			M132.88,26.28c-10.11,4.37-20.36,13.8-20.5,26.37c-0.14,12.57-3.69,11.48-5.6,7.65c-1.91-3.83-1.91-12.57,2.05-19.4"/>
		
			<path clip-path="url(#SVGID_00000047047100586088076710000014834328837403456665_)" fill="none" stroke="#000000" stroke-width="0.35" stroke-linecap="round" stroke-linejoin="round" stroke-miterlimit="10" d="
			M122.23,23.96c-9.43,3.28-19.68,7.11-24.46,19.54"/>
		
			<path clip-path="url(#SVGID_00000047047100586088076710000014834328837403456665_)" fill="none" stroke="#000000" stroke-width="0.25" stroke-linecap="round" stroke-linejoin="round" stroke-miterlimit="10" d="
			M101.18,49.1c-1.64-1.91-5.06-5.06-6.29-5.6c-1.23-0.55-1.78-2.19-1.37-3.69c0.41-1.5,5.19-10.25,6.01-11.89"/>
		
			<path clip-path="url(#SVGID_00000047047100586088076710000014834328837403456665_)" fill="none" stroke="#000000" stroke-width="0.25" stroke-linecap="round" stroke-linejoin="round" stroke-miterlimit="10" d="
			M114.16,20.13c3.96-1.5,8.2-1.91,10.11-1.78c1.91,0.14,5.74,0.41,7.1-3.14"/>
		
			<path clip-path="url(#SVGID_00000047047100586088076710000014834328837403456665_)" fill="none" stroke="#000000" stroke-width="0.25" stroke-linecap="round" stroke-linejoin="round" stroke-miterlimit="10" d="
			M118.67,49.78c-1.5,7.65-2.46,14.08-1.23,19.13"/>
		
			<path clip-path="url(#SVGID_00000047047100586088076710000014834328837403456665_)" fill="none" stroke="#000000" stroke-width="0.25" stroke-linecap="round" stroke-linejoin="round" stroke-miterlimit="10" d="
			M104.74,44.46c-3.83,5.47-6.15,12.57-6.01,16.81"/>
		<path clip-path="url(#SVGID_00000047047100586088076710000014834328837403456665_)" fill="#FFFFFF" d="M106.38,111.96
			c-1.37,2.46-5.19,8.47-5.74,10.11"/>
		
			<path clip-path="url(#SVGID_00000047047100586088076710000014834328837403456665_)" fill="none" stroke="#000000" stroke-width="0.5" stroke-linecap="round" stroke-linejoin="round" stroke-miterlimit="10" d="
			M106.38,111.96c-1.37,2.46-5.19,8.47-5.74,10.11"/>
		
			<path clip-path="url(#SVGID_00000047047100586088076710000014834328837403456665_)" fill="none" stroke="#000000" stroke-width="0.25" stroke-linecap="round" stroke-linejoin="round" stroke-miterlimit="10" d="
			M161.03,86.81c4.1,3.55,8.74,10.66,10.66,13.39"/>
		
			<path clip-path="url(#SVGID_00000047047100586088076710000014834328837403456665_)" fill="none" stroke="#000000" stroke-width="0.25" stroke-linecap="round" stroke-linejoin="round" stroke-miterlimit="10" d="
			M154.75,86.81c3.55,7.11,5.46,20.22,5.19,25.14"/>
		
			<path clip-path="url(#SVGID_00000047047100586088076710000014834328837403456665_)" fill="none" stroke="#000000" stroke-width="0.25" stroke-linecap="round" stroke-linejoin="round" stroke-miterlimit="10" d="
			M128.51,99.66c-1.64,1.64-4.1,4.65-4.92,6.56"/>
		
			<path clip-path="url(#SVGID_00000047047100586088076710000014834328837403456665_)" fill="none" stroke="#000000" stroke-width="0.25" stroke-linecap="round" stroke-linejoin="round" stroke-miterlimit="10" d="
			M135.34,110.32c-1.09,3.28-7.1,25.96-6.83,30.61"/>
		
			<path clip-path="url(#SVGID_00000047047100586088076710000014834328837403456665_)" fill="none" stroke="#000000" stroke-width="0.25" stroke-linecap="round" stroke-linejoin="round" stroke-miterlimit="10" d="
			M176.61,91.73c4.1,3.55,7.38,10.38,8.75,13.39"/>
		<path clip-path="url(#SVGID_00000047047100586088076710000014834328837403456665_)" fill="#016EA0" d="M91.35,141.47
			c0-1.21-0.86-2.18-1.91-2.18c-1.06,0-1.91,0.98-1.91,2.18c0,1.21,0.86,2.19,1.91,2.19C90.49,143.66,91.35,142.68,91.35,141.47"/>
		
			<path clip-path="url(#SVGID_00000047047100586088076710000014834328837403456665_)" fill="none" stroke="#000000" stroke-width="0.35" stroke-linecap="round" stroke-linejoin="round" stroke-miterlimit="10" d="
			M91.35,141.47c0-1.21-0.86-2.18-1.91-2.18c-1.06,0-1.91,0.98-1.91,2.18c0,1.21,0.86,2.19,1.91,2.19
			C90.49,143.66,91.35,142.68,91.35,141.47z"/>
		<path clip-path="url(#SVGID_00000047047100586088076710000014834328837403456665_)" fill="#016EA0" d="M109.66,167.98
			c0-1.21-0.86-2.19-1.91-2.19s-1.91,0.98-1.91,2.19c0,1.21,0.86,2.19,1.91,2.19S109.66,169.19,109.66,167.98"/>
		
			<ellipse clip-path="url(#SVGID_00000047047100586088076710000014834328837403456665_)" fill="none" stroke="#000000" stroke-width="0.35" stroke-linecap="round" stroke-linejoin="round" stroke-miterlimit="10" cx="107.74" cy="167.98" rx="1.91" ry="2.19"/>
		<path clip-path="url(#SVGID_00000047047100586088076710000014834328837403456665_)" fill="#016EA0" d="M141.63,149.13
			c0-1.21-0.86-2.18-1.91-2.18c-1.06,0-1.91,0.98-1.91,2.18c0,1.21,0.86,2.18,1.91,2.18C140.77,151.31,141.63,150.33,141.63,149.13"
			/>
		
			<ellipse clip-path="url(#SVGID_00000047047100586088076710000014834328837403456665_)" fill="none" stroke="#000000" stroke-width="0.35" stroke-linecap="round" stroke-linejoin="round" stroke-miterlimit="10" cx="139.72" cy="149.13" rx="1.91" ry="2.18"/>
		<path clip-path="url(#SVGID_00000047047100586088076710000014834328837403456665_)" fill="#016EA0" d="M172.24,174.54
			c0-1.21-0.86-2.19-1.91-2.19c-1.06,0-1.91,0.98-1.91,2.19c0,1.21,0.86,2.19,1.91,2.19C171.38,176.73,172.24,175.75,172.24,174.54"
			/>
		
			<ellipse clip-path="url(#SVGID_00000047047100586088076710000014834328837403456665_)" fill="none" stroke="#000000" stroke-width="0.35" stroke-linecap="round" stroke-linejoin="round" stroke-miterlimit="10" cx="170.33" cy="174.54" rx="1.91" ry="2.19"/>
		<path clip-path="url(#SVGID_00000047047100586088076710000014834328837403456665_)" fill="#016EA0" d="M198.2,123.16
			c0-1.21-0.86-2.19-1.92-2.19c-1.06,0-1.91,0.98-1.91,2.19c0,1.21,0.85,2.19,1.91,2.19C197.34,125.35,198.2,124.37,198.2,123.16"/>
		
			<path clip-path="url(#SVGID_00000047047100586088076710000014834328837403456665_)" fill="none" stroke="#000000" stroke-width="0.35" stroke-linecap="round" stroke-linejoin="round" stroke-miterlimit="10" d="
			M198.2,123.16c0-1.21-0.86-2.19-1.92-2.19c-1.06,0-1.91,0.98-1.91,2.19c0,1.21,0.85,2.19,1.91,2.19
			C197.34,125.35,198.2,124.37,198.2,123.16z"/>
		<path clip-path="url(#SVGID_00000047047100586088076710000014834328837403456665_)" fill="#016EA0" d="M223.62,143.11
			c0-1.21-0.85-2.19-1.91-2.19c-1.06,0-1.91,0.98-1.91,2.19c0,1.21,0.86,2.18,1.91,2.18C222.76,145.3,223.62,144.32,223.62,143.11"
			/>
		
			<path clip-path="url(#SVGID_00000047047100586088076710000014834328837403456665_)" fill="none" stroke="#000000" stroke-width="0.35" stroke-linecap="round" stroke-linejoin="round" stroke-miterlimit="10" d="
			M223.62,143.11c0-1.21-0.85-2.19-1.91-2.19c-1.06,0-1.91,0.98-1.91,2.19c0,1.21,0.86,2.18,1.91,2.18
			C222.76,145.3,223.62,144.32,223.62,143.11z"/>
		<path clip-path="url(#SVGID_00000047047100586088076710000014834328837403456665_)" fill="#016EA0" d="M205.03,171.53
			c0-1.21-0.86-2.19-1.91-2.19c-1.06,0-1.91,0.98-1.91,2.19s0.86,2.19,1.91,2.19C204.18,173.72,205.03,172.74,205.03,171.53"/>
		
			<ellipse clip-path="url(#SVGID_00000047047100586088076710000014834328837403456665_)" fill="none" stroke="#000000" stroke-width="0.35" stroke-linecap="round" stroke-linejoin="round" stroke-miterlimit="10" cx="203.12" cy="171.53" rx="1.91" ry="2.19"/>
		<path clip-path="url(#SVGID_00000047047100586088076710000014834328837403456665_)" fill="#016EA0" d="M142.72,177.82
			c0-1.21-0.86-2.19-1.91-2.19c-1.06,0-1.91,0.98-1.91,2.19c0,1.21,0.86,2.19,1.91,2.19C141.87,180.01,142.72,179.03,142.72,177.82"
			/>
		
			<path clip-path="url(#SVGID_00000047047100586088076710000014834328837403456665_)" fill="none" stroke="#000000" stroke-width="0.35" stroke-linecap="round" stroke-linejoin="round" stroke-miterlimit="10" d="
			M142.72,177.82c0-1.21-0.86-2.19-1.91-2.19c-1.06,0-1.91,0.98-1.91,2.19c0,1.21,0.86,2.19,1.91,2.19
			C141.87,180.01,142.72,179.03,142.72,177.82z"/>
		<g opacity="0.57" clip-path="url(#SVGID_00000047047100586088076710000014834328837403456665_)">
			<g>
				<defs>
					<rect id="SVGID_00000042724568458879690080000018175354271850530176_" x="220.6" y="142.65" width="55.34" height="44.16"/>
				</defs>
				<clipPath id="SVGID_00000078025464214262870650000006406900791250976415_">
					<use xlink:href="#SVGID_00000042724568458879690080000018175354271850530176_"  overflow="visible"/>
				</clipPath>
				<g clip-path="url(#SVGID_00000078025464214262870650000006406900791250976415_)">
					<defs>
						<path id="SVGID_00000075874856031624669540000003369207601464284312_" d="M230.26,142.65c-3.59,0-6.87,0.47-9.66,1.08
							c0,0,0.55,0.83,1.3,1.13c32.28-1.5,38.72,17.09,48.5,41.95h0l5.54-2.3C263.15,149.88,244.33,142.65,230.26,142.65
							C230.26,142.65,230.26,142.65,230.26,142.65"/>
					</defs>
					<clipPath id="SVGID_00000048500115232018195510000013178193387609882241_">
						<use xlink:href="#SVGID_00000075874856031624669540000003369207601464284312_"  overflow="visible"/>
					</clipPath>
					
						<linearGradient id="SVGID_00000165208830259101432420000015249187520768141732_" gradientUnits="userSpaceOnUse" x1="11.6791" y1="279.9871" x2="13.4591" y2="279.9871" gradientTransform="matrix(-29.6723 -20.3989 -20.3989 29.6723 6330.9189 -7887.9385)">
						<stop  offset="0" style="stop-color:#FFFFFF"/>
						<stop  offset="1" style="stop-color:#40A1D8"/>
					</linearGradient>
					
						<polygon clip-path="url(#SVGID_00000048500115232018195510000013178193387609882241_)" fill="url(#SVGID_00000165208830259101432420000015249187520768141732_)" points="
						258.18,212.64 199.99,172.64 238.36,116.82 296.55,156.82 					"/>
				</g>
			</g>
		</g>
		<g opacity="0.57" clip-path="url(#SVGID_00000047047100586088076710000014834328837403456665_)">
			<g>
				<defs>
					<rect id="SVGID_00000158713411857388193030000003501532967537873588_" x="195.26" y="122.25" width="55.9" height="66.12"/>
				</defs>
				<clipPath id="SVGID_00000010303115549190369830000007539497461917272209_">
					<use xlink:href="#SVGID_00000158713411857388193030000003501532967537873588_"  overflow="visible"/>
				</clipPath>
				<g clip-path="url(#SVGID_00000010303115549190369830000007539497461917272209_)">
					<defs>
						<path id="SVGID_00000019658367022542812330000016446444126560930698_" d="M195.26,123.44c0,0,0.49,0.86,1.22,1.22
							c39.77-3.83,37.5,19.61,49,63.71l5.68-1.93c-13.75-52.48-22.91-64.19-42.58-64.19C204.61,122.25,200.21,122.72,195.26,123.44"
							/>
					</defs>
					<clipPath id="SVGID_00000183966286633876927130000009495034215931421880_">
						<use xlink:href="#SVGID_00000019658367022542812330000016446444126560930698_"  overflow="visible"/>
					</clipPath>
					
						<linearGradient id="SVGID_00000160148282319904730630000000044928991041072010_" gradientUnits="userSpaceOnUse" x1="12.1609" y1="280.054" x2="13.9409" y2="280.054" gradientTransform="matrix(-34.1011 -26.9374 -26.9374 34.1011 8210.7002 -9045.1943)">
						<stop  offset="0" style="stop-color:#FFFFFF"/>
						<stop  offset="1" style="stop-color:#40A1D8"/>
					</linearGradient>
					
						<polygon clip-path="url(#SVGID_00000183966286633876927130000009495034215931421880_)" fill="url(#SVGID_00000160148282319904730630000000044928991041072010_)" points="
						229.69,215.56 162.41,162.42 216.74,93.63 284.02,146.78 					"/>
				</g>
			</g>
		</g>
		<g opacity="0.57" clip-path="url(#SVGID_00000047047100586088076710000014834328837403456665_)">
			<g>
				<defs>
					<rect id="SVGID_00000168104480208865013430000017201598757821680279_" x="202.08" y="170.83" width="45.85" height="41.42"/>
				</defs>
				<clipPath id="SVGID_00000052086472423314650220000012511113416410655635_">
					<use xlink:href="#SVGID_00000168104480208865013430000017201598757821680279_"  overflow="visible"/>
				</clipPath>
				<g clip-path="url(#SVGID_00000052086472423314650220000012511113416410655635_)">
					<defs>
						<path id="SVGID_00000093862904307491698520000014392998427262693546_" d="M202.08,171.96c0,0,0.42,1.29,1.04,1.55
							c25.98-2.48,31.84,14.59,40.36,38.75l4.45-2.65c-10.81-32.57-25.45-38.78-36.77-38.78
							C207.77,170.83,204.68,171.39,202.08,171.96"/>
					</defs>
					<clipPath id="SVGID_00000170280272955002279570000001614436088933682341_">
						<use xlink:href="#SVGID_00000093862904307491698520000014392998427262693546_"  overflow="visible"/>
					</clipPath>
					
						<linearGradient id="SVGID_00000030485983650122157050000009216314462579009688_" gradientUnits="userSpaceOnUse" x1="11.5414" y1="280.4816" x2="13.3214" y2="280.4816" gradientTransform="matrix(-26.1964 -16.2306 -16.2306 26.1964 5101.4419 -6955.3159)">
						<stop  offset="0" style="stop-color:#FFFFFF"/>
						<stop  offset="1" style="stop-color:#40A1D8"/>
					</linearGradient>
					
						<polygon clip-path="url(#SVGID_00000170280272955002279570000001614436088933682341_)" fill="url(#SVGID_00000030485983650122157050000009216314462579009688_)" points="
						235.21,232.78 183.54,200.76 214.8,150.3 266.47,182.32 					"/>
				</g>
			</g>
		</g>
		<g opacity="0.57" clip-path="url(#SVGID_00000047047100586088076710000014834328837403456665_)">
			<g>
				<defs>
					<rect id="SVGID_00000026122660020552618980000011927387929819104700_" x="169.11" y="173.62" width="32.9" height="49.09"/>
				</defs>
				<clipPath id="SVGID_00000065067581559491505390000013662175115242602625_">
					<use xlink:href="#SVGID_00000026122660020552618980000011927387929819104700_"  overflow="visible"/>
				</clipPath>
				<g clip-path="url(#SVGID_00000065067581559491505390000013662175115242602625_)">
					<defs>
						<path id="SVGID_00000081634243782155132970000015739381455682661566_" d="M169.11,174.15c0,0,0.01,2.01,1.27,2.02
							c21.85-2.24,24.91,13.47,25.52,46.54l6.1-0.8c-3.86-43.08-14.16-48.3-24-48.3C174.93,173.62,171.89,174.13,169.11,174.15"/>
					</defs>
					<clipPath id="SVGID_00000011003220617767962310000015986588185216879282_">
						<use xlink:href="#SVGID_00000081634243782155132970000015739381455682661566_"  overflow="visible"/>
					</clipPath>
					
						<linearGradient id="SVGID_00000176728419371261486090000011799658437014322320_" gradientUnits="userSpaceOnUse" x1="11.8539" y1="280.7864" x2="13.6339" y2="280.7864" gradientTransform="matrix(-22.9646 -17.5402 -17.5402 22.9646 5402.0918 -6027.3599)">
						<stop  offset="0" style="stop-color:#FFFFFF"/>
						<stop  offset="1" style="stop-color:#40A1D8"/>
					</linearGradient>
					
						<polygon clip-path="url(#SVGID_00000011003220617767962310000015986588185216879282_)" fill="url(#SVGID_00000176728419371261486090000011799658437014322320_)" points="
						189.89,238.58 145.43,204.62 181.23,157.75 225.69,191.7 					"/>
				</g>
			</g>
		</g>
		<g opacity="0.57" clip-path="url(#SVGID_00000047047100586088076710000014834328837403456665_)">
			<g>
				<defs>
					<rect id="SVGID_00000003815382013448179550000001334773595288952485_" x="55.3" y="168.09" width="54.06" height="66.61"/>
				</defs>
				<clipPath id="SVGID_00000173127305515207461080000009883943376897845127_">
					<use xlink:href="#SVGID_00000003815382013448179550000001334773595288952485_"  overflow="visible"/>
				</clipPath>
				<g clip-path="url(#SVGID_00000173127305515207461080000009883943376897845127_)">
					<defs>
						<path id="SVGID_00000056405817684954376960000016625403617526441380_" d="M102.6,168.09c-17.99,0.1-34.22,8.31-47.31,64.85
							l5.73,1.76c10.23-44.41,14.11-64.53,47.15-65.1c0.72-0.37,1.18-1.25,1.18-1.25c-2.04-0.14-4.06-0.25-6.06-0.26H102.6z"/>
					</defs>
					<clipPath id="SVGID_00000071560046474784872790000012050410991287651479_">
						<use xlink:href="#SVGID_00000056405817684954376960000016625403617526441380_"  overflow="visible"/>
					</clipPath>
					
						<linearGradient id="SVGID_00000014598927596638664810000012436951510473436333_" gradientUnits="userSpaceOnUse" x1="11.9041" y1="280.4136" x2="13.6841" y2="280.4136" gradientTransform="matrix(33.3106 -27.9095 27.9095 33.3106 -8168.0479 -8783.9502)">
						<stop  offset="0" style="stop-color:#FFFFFF"/>
						<stop  offset="1" style="stop-color:#40A1D8"/>
					</linearGradient>
					
						<polygon clip-path="url(#SVGID_00000071560046474784872790000012050410991287651479_)" fill="url(#SVGID_00000014598927596638664810000012436951510473436333_)" points="
						77.6,261.32 142.15,207.23 87.06,141.48 22.51,195.56 					"/>
				</g>
			</g>
		</g>
		<g opacity="0.57" clip-path="url(#SVGID_00000047047100586088076710000014834328837403456665_)">
			<g>
				<defs>
					<rect id="SVGID_00000119114120635531011540000010603726351956165544_" x="82.06" y="149.5" width="59.43" height="62.62"/>
				</defs>
				<clipPath id="SVGID_00000017489073496203560240000010488397949786258349_">
					<use xlink:href="#SVGID_00000119114120635531011540000010603726351956165544_"  overflow="visible"/>
				</clipPath>
				<g clip-path="url(#SVGID_00000017489073496203560240000010488397949786258349_)">
					<defs>
						<path id="SVGID_00000136371515790214592360000015276134721409445034_" d="M82.06,209.9l5.58,2.21
							c13.7-43.47,20.1-61.29,52.14-61.17c1.09-0.18,1.71-1.07,1.71-1.07c-2.61-0.19-5.26-0.37-7.94-0.37
							C116.94,149.5,99,156.38,82.06,209.9"/>
					</defs>
					<clipPath id="SVGID_00000077281880861816231210000017736915389991013774_">
						<use xlink:href="#SVGID_00000136371515790214592360000015276134721409445034_"  overflow="visible"/>
					</clipPath>
					
						<linearGradient id="SVGID_00000080204524490863386860000006130161856061336987_" gradientUnits="userSpaceOnUse" x1="12.2788" y1="280.4893" x2="14.0588" y2="280.4893" gradientTransform="matrix(35.5394 -25.2819 25.2819 35.5394 -7445.3667 -9456.2266)">
						<stop  offset="0" style="stop-color:#FFFFFF"/>
						<stop  offset="1" style="stop-color:#40A1D8"/>
					</linearGradient>
					
						<polygon clip-path="url(#SVGID_00000077281880861816231210000017736915389991013774_)" fill="url(#SVGID_00000080204524490863386860000006130161856061336987_)" points="
						102.03,240.18 171.07,191.07 121.52,121.43 52.49,170.54 					"/>
				</g>
			</g>
		</g>
		<g opacity="0.57" clip-path="url(#SVGID_00000047047100586088076710000014834328837403456665_)">
			<g>
				<defs>
					<rect id="SVGID_00000014609343512394051700000015942181749534853794_" x="34.3" y="141.14" width="56.55" height="62.49"/>
				</defs>
				<clipPath id="SVGID_00000137098657448241682960000004251163158540810168_">
					<use xlink:href="#SVGID_00000014609343512394051700000015942181749534853794_"  overflow="visible"/>
				</clipPath>
				<g clip-path="url(#SVGID_00000137098657448241682960000004251163158540810168_)">
					<defs>
						<path id="SVGID_00000183224067921557200660000002563817377360732329_" d="M83.63,141.14c-12.41,0.08-32.86,7.68-49.33,57.94
							l2.49,4.55c14.15-43.32,26.54-62.32,52.65-60.32c0.75-0.31,1.42-1.45,1.42-1.45c-1.78-0.33-4.09-0.7-6.8-0.72H83.63z"/>
					</defs>
					<clipPath id="SVGID_00000021825992817512888010000003157548857733705362_">
						<use xlink:href="#SVGID_00000183224067921557200660000002563817377360732329_"  overflow="visible"/>
					</clipPath>
					
						<linearGradient id="SVGID_00000098926090072154716470000017039550943978697880_" gradientUnits="userSpaceOnUse" x1="11.8836" y1="280.1356" x2="13.6636" y2="280.1356" gradientTransform="matrix(34.2676 -23.8439 23.8439 34.2676 -7052.3408 -9124.248)">
						<stop  offset="0" style="stop-color:#FFFFFF"/>
						<stop  offset="1" style="stop-color:#40A1D8"/>
					</linearGradient>
					
						<polygon clip-path="url(#SVGID_00000021825992817512888010000003157548857733705362_)" fill="url(#SVGID_00000098926090072154716470000017039550943978697880_)" points="
						52.74,230.14 120.14,183.24 72.4,114.63 5,161.53 					"/>
				</g>
			</g>
		</g>
		<g opacity="0.57" clip-path="url(#SVGID_00000047047100586088076710000014834328837403456665_)">
			<g>
				<defs>
					<rect id="SVGID_00000163073641723338246000000015096011404281191356_" x="90.8" y="177.42" width="51.59" height="51.1"/>
				</defs>
				<clipPath id="SVGID_00000000212932441725269270000012215087954851826363_">
					<use xlink:href="#SVGID_00000163073641723338246000000015096011404281191356_"  overflow="visible"/>
				</clipPath>
				<g clip-path="url(#SVGID_00000000212932441725269270000012215087954851826363_)">
					<defs>
						<path id="SVGID_00000039853031671828253540000001601062683616087734_" d="M137.25,177.42c-11.3,0.08-34.48,5.06-46.46,49.22
							l5.86,1.88c6.55-32.43,21.34-49.55,44.25-48.93c0.95,0.06,1.48-1.91,1.48-1.91c-1.03-0.09-2.59-0.25-4.55-0.26H137.25z"/>
					</defs>
					<clipPath id="SVGID_00000095313879657952397090000012373050782578554758_">
						<use xlink:href="#SVGID_00000039853031671828253540000001601062683616087734_"  overflow="visible"/>
					</clipPath>
					
						<linearGradient id="SVGID_00000007400282426235256930000005238329508875856271_" gradientUnits="userSpaceOnUse" x1="12.1126" y1="280.8728" x2="13.8926" y2="280.8728" gradientTransform="matrix(31.8423 -16.2305 16.2305 31.8423 -4854.2622 -8530.5938)">
						<stop  offset="0" style="stop-color:#FFFFFF"/>
						<stop  offset="1" style="stop-color:#40A1D8"/>
					</linearGradient>
					
						<polygon clip-path="url(#SVGID_00000095313879657952397090000012373050782578554758_)" fill="url(#SVGID_00000007400282426235256930000005238329508875856271_)" points="
						101.44,249.39 163.06,217.98 131.75,156.54 70.12,187.96 					"/>
				</g>
			</g>
		</g>
	</g>
</g>
</svg>
